<?xml version="1.0" encoding="UTF-8" standalone="no"?>
<svg
   xmlns:dc="http://purl.org/dc/elements/1.1/"
   xmlns:cc="http://creativecommons.org/ns#"
   xmlns:rdf="http://www.w3.org/1999/02/22-rdf-syntax-ns#"
   xmlns:svg="http://www.w3.org/2000/svg"
   xmlns="http://www.w3.org/2000/svg"
   xmlns:xlink="http://www.w3.org/1999/xlink"
   xmlns:sodipodi="http://sodipodi.sourceforge.net/DTD/sodipodi-0.dtd"
   xmlns:inkscape="http://www.inkscape.org/namespaces/inkscape"
   width="210mm"
   height="297mm"
   viewBox="0 0 210 297"
   version="1.1"
   id="svg8"
   inkscape:version="1.0.1 (0767f8302a, 2020-10-17)"
   sodipodi:docname="TigerSynth.svg">
  <defs
     id="defs2" />
  <sodipodi:namedview
     id="base"
     pagecolor="#ffffff"
     bordercolor="#666666"
     borderopacity="1.0"
     inkscape:pageopacity="0.0"
     inkscape:pageshadow="2"
     inkscape:zoom="0.49497475"
     inkscape:cx="437.52162"
     inkscape:cy="286.32474"
     inkscape:document-units="mm"
     inkscape:current-layer="layer1"
     inkscape:document-rotation="0"
     showgrid="false"
     inkscape:snap-global="false"
     inkscape:window-width="1428"
     inkscape:window-height="1016"
     inkscape:window-x="106"
     inkscape:window-y="27"
     inkscape:window-maximized="0" />
  <metadata
     id="metadata5">
    <rdf:RDF>
      <cc:Work
         rdf:about="">
        <dc:format>image/svg+xml</dc:format>
        <dc:type
           rdf:resource="http://purl.org/dc/dcmitype/StillImage" />
        <dc:title></dc:title>
      </cc:Work>
    </rdf:RDF>
  </metadata>
  <g
     inkscape:label="Layer 1"
     inkscape:groupmode="layer"
     id="layer1">
    <path
       style="fill:none;stroke:#ffffff;stroke-width:0.264583px;stroke-linecap:butt;stroke-linejoin:miter;stroke-opacity:1"
       d="m 173.43196,77.671031 c 11.52504,1.977833 21.71987,11.543129 23.6059,30.254689"
       id="path1603"
       sodipodi:nodetypes="cc" />
    <g
       id="g88"
       transform="matrix(0.35277777,0,0,-0.35277777,169.02307,78.956231)">
      <path
         d="m 0,0 c -0.718,-0.644 -2.664,-1.871 -4.535,-2.949 -1.875,-1.082 -4.754,-3.313 -6.336,-4.969 -1.73,-1.586 -4.824,-4.25 -6.984,-5.832 -4.535,-3.168 -5.039,-4.535 -3.672,-7.559 0.504,-1.082 1.438,-2.378 1.941,-2.953 l 1.082,-1.152 v 1.223 c 0,1.007 0.29,1.152 1.442,1.007 2.23,-0.285 2.086,1.153 -0.145,1.946 -3.457,1.082 -3.457,2.375 0,4.894 1.223,0.868 3.239,2.594 4.461,3.891 l 2.305,2.519 2.234,-0.718 c 3.239,-0.793 3.453,-0.793 3.672,-0.145 0,0.215 -0.578,0.863 -1.586,1.438 -0.863,0.578 -1.656,1.152 -1.656,1.371 0,1.078 1.152,1.078 3.242,-0.289 1.367,-0.793 2.59,-1.297 2.879,-1.297 0.863,0 0.504,1.367 -1.008,2.808 -0.793,0.864 -1.297,1.582 -1.152,1.872 0.574,0.648 2.809,-1.368 4.246,-3.457 1.152,-2.231 3.098,-3.454 3.816,-2.805 0.145,0.14 -0.863,1.726 -2.23,3.672 -1.297,1.726 -2.305,3.453 -2.09,3.672 0.145,0.07 1.371,0.214 2.883,0.214 1.437,-0.074 2.59,0.145 2.809,0.43 C 5.977,-2.519 3.168,0.363 2.016,0.723 1.582,0.938 0.719,0.508 0,0 m 13.106,-6.476 c 0.719,-1.442 1.941,-3.891 2.879,-5.329 3.312,-4.898 3.672,-8.136 1.582,-13.035 -1.512,-2.949 -1.512,-3.168 -0.504,-3.168 0.863,0 5.402,5.762 6.336,8.496 0.723,1.875 0.863,4.176 0.144,4.61 -0.144,0.215 -0.504,-0.719 -1.007,-1.946 -1.008,-2.519 -1.657,-2.445 -1.727,0 0,0.434 -1.008,2.664 -1.871,4.61 -1.152,2.09 -1.875,3.961 -1.875,4.32 0,0.863 3.098,0.215 5.906,-0.719 1.656,-0.722 1.871,-0.937 2.59,-3.961 0.723,-2.375 0.863,-4.175 0.723,-6.55 -0.289,-3.602 0.14,-4.25 1.367,-2.02 0.574,0.938 0.934,2.594 0.934,5.328 0,2.235 0.218,4.25 0.363,4.395 0.07,0.289 1.726,-0.36 3.453,-1.367 2.664,-1.442 3.098,-2.09 4.031,-4.61 1.586,-3.601 1.875,-8.566 1.297,-13.679 -0.285,-2.235 -0.504,-4.032 -0.359,-4.25 0.144,-0.141 0.937,0.937 1.656,2.593 l 1.441,2.809 2.305,-0.36 c 1.148,-0.218 2.949,-0.722 3.742,-1.082 l 1.582,-0.933 -1.078,-1.227 c -0.719,-0.718 -1.871,-1.8 -2.879,-2.519 -1.441,-1.367 -1.441,-1.512 -0.863,-3.239 0.359,-0.792 0.644,-1.511 0.719,-1.511 0.144,0 2.015,0.719 3.962,1.582 2.948,1.367 3.67,2.09 4.03,3.168 l 0.215,1.222 1.297,-1.511 c 0.863,-0.864 2.375,-3.742 3.527,-6.696 1.441,-2.734 3.098,-6.406 3.746,-7.918 3.742,-6.839 6.191,-13.898 7.414,-21.097 0.359,-2.449 0.649,-4.68 0.649,-4.75 -0.215,-0.145 -0.719,0.719 -1.083,1.652 -0.644,1.082 -1.437,1.875 -1.582,1.875 -2.16,0 -8.71,-3.816 -8.136,-4.754 0.144,-0.215 -0.43,-0.793 -1.077,-1.222 -0.435,-0.649 -1.154,-1.223 -1.154,-1.801 0,-0.793 0.145,-0.793 1.223,0.07 0.937,0.578 1.512,0.723 1.801,0.363 0.289,-0.363 1.511,-0.144 3.238,0.649 3.457,1.797 4.25,1.726 6.984,-0.434 l 2.375,-2.015 v 3.238 c 0,7.562 -5.254,24.265 -10.078,32.043 -2.664,4.246 -4.105,7.558 -4.105,10.008 -0.071,5.039 -1.797,8.132 -7.489,12.957 -1.941,1.586 -4.101,3.89 -4.964,5.043 -0.938,1.007 -2.883,2.879 -4.68,3.957 -1.801,1.226 -4.898,3.242 -6.914,4.539 -2.16,1.367 -4.75,2.879 -6.121,3.527 -1.153,0.285 -3.887,1.293 -5.832,2.086 -2.231,0.863 -4.68,1.227 -6.551,1.227 h -2.734 l 1.152,-2.664 m -8.86,0.863 c -0.574,-1.512 0.219,-2.449 2.45,-2.449 2.734,0 2.808,-0.215 1.726,-3.672 -0.574,-2.086 -0.574,-2.231 0.074,-2.231 0.649,0 1.297,0.934 1.872,2.949 1.441,4.106 1.367,5.114 -0.145,5.618 -1.871,0.937 -5.613,0.793 -5.977,-0.215 m -14.542,-10.512 c -2.376,-2.953 -2.45,-3.746 -0.29,-2.738 2.016,0.937 5.114,1.008 7.204,0.219 0.863,-0.364 2.734,-0.723 4.101,-1.082 1.227,-0.145 2.16,-0.504 2.16,-0.575 0,-0.144 -0.574,-1.226 -1.656,-2.379 -2.016,-2.445 -1.801,-3.168 0.648,-1.941 1.008,0.648 2.305,2.016 3.313,3.887 2.16,4.105 2.449,4.894 1.297,4.39 -0.434,-0.215 -2.16,-0.429 -3.746,-0.574 -2.59,-0.433 -3.313,-0.144 -6.621,1.512 -2.02,1.222 -3.817,1.945 -3.961,1.945 -0.145,0 -1.227,-1.152 -2.449,-2.664 m 42.695,-1.656 c -0.145,-0.938 -0.359,-3.168 -0.359,-4.824 0,-4.395 -1.223,-10.586 -2.59,-13.176 -1.297,-2.664 -4.176,-5.762 -6.481,-7.274 l -1.875,-1.152 2.594,0.219 c 2.23,0.215 3.238,0.644 4.969,1.941 1.078,1.082 2.16,1.586 2.16,1.512 0.43,-0.285 -0.793,-7.199 -1.801,-9.285 -0.793,-2.16 -1.223,-2.809 -4.176,-4.25 -1.801,-1.008 -3.457,-1.946 -3.601,-2.16 -0.285,-0.289 0.218,-3.313 0.578,-3.817 0.504,-0.574 8.711,4.106 9.359,5.328 0.719,0.793 1.152,2.809 1.367,6.41 0.145,2.735 0.579,7.629 0.793,10.657 0.864,6.406 0.575,19.148 -0.289,20.804 -0.359,0.793 -0.359,0.649 -0.648,-0.933 M 7.704,-21.598 c 0,-3.168 -1.008,-4.39 -3.961,-5.906 -1.368,-0.574 -2.735,-1.293 -2.735,-1.582 0,-0.793 8.063,-0.289 8.785,0.574 0.43,0.434 -0.363,7.489 -1.007,8.715 -0.504,1.078 -1.082,0.285 -1.082,-1.801 m -17.422,-3.601 c -0.434,-0.285 -0.793,-1.008 -0.793,-1.367 0,-0.719 0.359,-0.864 2.015,-0.575 1.871,0.36 2.086,0.141 2.59,-0.867 0.508,-0.863 0.434,-1.437 -0.504,-2.23 -0.719,-1.008 -0.863,-1.008 -2.086,-0.215 -0.648,0.504 -1.297,0.863 -1.511,0.719 -0.36,-0.504 -0.145,-5.254 0.359,-5.903 0.215,-0.433 1.367,-1.297 2.375,-1.8 2.16,-1.008 2.379,-0.938 4.25,2.664 0.863,1.656 0.863,2.086 0.285,2.375 -0.43,0.144 -1.293,-0.215 -2.016,-0.938 -0.718,-0.504 -1.656,-1.078 -1.871,-1.078 -1.007,0 -0.289,1.152 1.227,2.16 1.223,0.938 1.367,1.367 1.367,3.238 0,1.512 -0.219,2.379 -1.008,2.954 -1.511,0.937 -3.672,1.441 -4.679,0.863 m 21.382,-3.024 c -2.234,-5.328 -5.832,-6.765 -9.074,-3.961 -3.383,2.739 -3.672,1.731 -1.078,-2.3 1.582,-2.664 1.801,-2.739 3.527,-2.45 6.192,1.079 8.352,3.168 8.711,7.918 0.219,4.176 -0.574,4.465 -2.086,0.793 M -18,-29.445 c -2.089,-6.266 -1.726,-7.848 0.864,-3.891 1.441,2.449 1.441,2.379 2.09,-1.726 0.503,-3.024 1.222,-2.45 1.222,0.937 v 3.238 l 0.719,-1.726 c 1.008,-2.52 1.73,-2.305 1.367,0.359 -0.574,5.254 -0.574,5.184 -2.445,5.688 -2.809,0.433 -2.879,0.359 -3.817,-2.879 m 38.016,-6.047 c -4.246,-1.227 -5.688,-3.531 -5.113,-8.859 0.578,-4.75 0.793,-5.758 1.586,-5.758 0.359,0 1.078,-0.215 1.437,-0.434 1.516,-0.933 0.504,-1.582 -1.871,-1.582 -1.367,-0.074 -1.941,-0.793 -0.574,-1.297 2.305,-1.082 8.566,0.504 10.941,2.879 0.723,0.723 0.793,0.938 0.434,2.594 -0.504,1.297 -0.938,1.582 -1.582,1.437 -0.434,-0.14 -2.305,-0.574 -3.961,-1.148 -1.656,-0.363 -3.242,-0.508 -3.527,-0.289 -0.075,0.215 -0.364,1.801 -0.504,3.598 -0.364,3.531 -0.364,3.531 1.293,5.257 1.082,1.512 2.089,1.946 2.953,1.946 1.441,0 3.023,1.148 3.023,2.086 0,0.289 -3.023,0.074 -4.535,-0.43 m 18.215,-5.188 c -1.153,-1.511 -2.305,-5.109 -3.816,-11.16 -1.582,-5.543 -2.805,-7.199 -7.415,-9.504 -3.312,-1.367 -3.816,-1.941 -3.816,-3.023 0,-2.375 1.152,-2.809 4.609,-1.367 3.528,1.441 4.75,2.449 4.75,4.031 0,0.578 1.368,3.961 3.024,7.059 2.305,4.32 2.883,5.468 2.883,4.46 0,-0.789 -0.145,-2.015 -0.289,-2.734 -0.289,-1.152 -0.215,-1.441 0.144,-1.441 1.008,0 1.871,1.586 3.383,5.183 l 1.223,3.457 -0.934,3.024 c -1.082,3.601 -2.16,4.394 -3.746,2.015 m 10.008,-1.511 -2.949,-1.942 0.214,-2.09 c 0.215,-1.656 0,-2.449 -1.945,-5.472 -1.437,-1.797 -3.383,-4.606 -4.391,-5.977 -2.09,-2.519 -2.09,-2.59 -0.863,-2.015 1.871,0.793 3.023,2.015 7.125,7.777 3.313,4.754 5.617,6.695 6.699,5.902 1.079,-0.718 0.43,-1.726 -1.296,-2.301 -1.946,-0.867 -3.243,-2.16 -2.739,-3.671 0.145,-0.579 -0.429,-1.731 -0.933,-2.809 -0.864,-1.082 -1.801,-3.961 -2.594,-6.051 -0.719,-3.597 -1.871,-5.972 -4.461,-10.726 l -0.793,-1.368 1.512,1.297 c 0.863,0.649 2.086,2.161 2.88,3.094 2.014,3.098 3.241,4.465 3.885,4.465 1.586,0 -2.16,-7.414 -5.254,-10.441 l -2.375,-2.735 -1.656,1.512 c -0.722,1.082 -1.73,2.09 -1.875,2.664 -0.359,0.863 -0.719,0.793 -3.887,-0.938 -1.871,-0.933 -3.597,-2.015 -3.597,-2.375 -0.145,-0.359 0,-1.367 0.215,-2.23 0.718,-1.801 2.304,-2.16 3.382,-0.648 0.215,0.359 1.297,1.078 2.09,1.511 1.582,0.649 1.797,0.649 2.879,-0.144 l 1.008,-0.864 -3.527,-2.16 c -2.09,-1.082 -3.817,-2.16 -3.961,-2.304 -0.071,-0.071 0.289,-0.864 0.793,-2.016 l 0.718,-1.801 3.313,1.731 c 1.801,1.148 3.383,1.941 3.602,1.941 0.214,0 1.367,1.731 2.734,3.746 1.586,2.086 2.734,3.672 2.808,3.598 0,-0.07 0.36,-1.942 0.649,-4.176 0.574,-5.109 2.23,-9.574 4.605,-12.238 1.371,-1.442 2.664,-2.16 4.899,-2.953 4.175,-1.153 4.535,-2.231 1.726,-4.68 -1.152,-0.938 -2.23,-1.656 -2.664,-1.656 -0.359,0 -0.718,-0.289 -0.718,-0.575 0,-0.363 0.933,-0.433 2.808,-0.144 1.367,0.215 3.168,0.359 4.102,0.359 1.371,0.071 1.441,0 1.152,-2.449 -0.215,-2.664 -1.297,-10.367 -2.016,-12.168 -0.574,-1.437 -1.941,-1.512 -4.824,-0.144 -1.437,0.433 -3.961,1.152 -6.047,1.441 -2.16,0.145 -5.976,0.793 -8.496,1.297 -2.449,0.43 -4.609,1.008 -4.754,0.933 -0.07,-0.214 0.578,-0.933 1.153,-1.726 1.73,-1.656 3.601,-2.09 8.351,-3.024 6.985,-1.222 8.282,-1.585 10.082,-3.601 1.078,-1.078 1.947,-2.375 2.016,-3.168 0.434,-1.656 -1.656,-9.789 -2.664,-11.375 l -1.152,-1.441 -2.016,1.441 c -1.223,0.719 -3.602,3.023 -5.473,4.969 -3.816,4.175 -3.527,4.101 -10.511,1.297 -4.825,-1.875 -5.903,-1.946 -8.786,-0.145 -1.797,1.008 -2.375,1.078 -2.375,0.574 0,-1.297 2.809,-4.535 4.969,-6.121 2.231,-1.512 2.449,-1.582 10.367,-1.652 9.504,0 10.801,-0.504 10.801,-3.098 0,-0.937 -0.434,-2.375 -0.719,-3.023 l -0.937,-1.297 -1.442,1.441 c -1.293,1.293 -1.941,1.582 -3.308,1.512 -2.235,-0.289 -2.524,-1.227 -0.504,-1.656 1.293,-0.215 3.168,-1.657 3.168,-2.52 0,-0.219 -0.793,-1.297 -2.234,-2.234 -2.016,-1.727 -2.231,-1.801 -3.817,-1.153 -1.871,0.868 -5.183,0.364 -6.48,-1.078 l -1.153,-0.793 1.801,-1.222 c 1.945,-1.367 2.016,-2.305 0.434,-3.817 -0.793,-0.863 -1.368,-1.007 -1.871,-0.648 -1.801,1.801 -5.977,1.586 -7.204,-0.289 -0.644,-0.649 -0.503,-1.008 0.868,-2.16 2.16,-1.942 2.16,-3.239 0.14,-5.903 l -1.871,-2.16 -4.176,0.145 c -3.527,0.289 -4.246,0.215 -4.968,-0.649 -0.864,-1.082 -0.864,-1.082 1.226,-1.367 2.231,-0.289 4.176,-1.441 4.176,-2.449 0,-0.36 -0.793,-1.727 -1.731,-3.024 -1.437,-2.16 -1.796,-2.375 -2.519,-2.015 -1.152,0.793 -5.109,0.793 -6.91,-0.145 -0.864,-0.215 -1.731,-1.008 -1.946,-1.441 -0.429,-0.934 -0.214,-1.008 2.161,-0.934 2.089,0.071 2.738,-0.144 3.457,-1.152 0.863,-1.297 0.863,-1.297 -0.289,-3.816 -1.297,-2.52 -1.297,-2.52 -2.59,-1.946 -0.578,0.578 -1.875,0.723 -2.739,0.723 -1.945,0 -4.824,-1.875 -5.253,-3.313 -0.075,-0.722 0.359,-0.937 1.796,-0.937 2.594,0 4.321,-0.793 4.321,-1.945 0,-0.575 -0.575,-2.086 -1.078,-3.454 l -1.223,-2.378 -2.449,0.289 c -3.528,0.144 -5.977,-1.442 -5.977,-3.817 0,-0.144 0.719,-0.144 1.656,0 0.864,0.36 2.59,0.578 3.602,0.36 l 2.016,-0.071 -0.219,-2.664 c -0.145,-4.465 -0.649,-5.113 -2.949,-5.113 -2.305,0 -4.25,-1.367 -4.68,-3.238 -0.363,-0.864 0,-0.864 2.445,-0.649 3.602,0.289 4.535,-0.793 4.535,-5.113 v -2.949 H 3.168 c -2.304,0 -4.894,-2.953 -3.457,-3.961 0.36,-0.215 1.008,0 1.297,0.359 1.871,2.016 4.61,0.504 5.113,-2.664 0.286,-1.656 0.286,-1.727 -1.371,-1.727 -2.086,0 -3.742,-1.371 -3.742,-3.167 0,-3.672 9.289,-10.801 10.727,-8.067 0.144,0.219 -0.789,3.527 -1.871,7.633 -2.16,7.199 -3.239,13.68 -3.239,20.734 0,7.489 4.536,20.594 9.286,27.793 1.371,1.801 3.601,5.184 5.183,7.563 4.106,6.336 11.234,14.328 19.516,22.101 5.183,4.68 8.133,6.914 9.359,7.344 3.313,0.863 3.313,1.008 2.59,1.731 -0.934,0.644 -0.719,0.863 0.649,2.519 2.015,2.231 4.031,7.344 6.191,15.695 2.09,8.496 5.043,27.145 4.824,29.086 -0.43,1.875 -2.305,2.953 -6.621,3.672 -1.801,0.289 -4.035,1.082 -4.684,1.586 -3.168,2.231 -5.613,8.496 -6.191,14.977 -0.504,5.039 0.793,6.695 6.555,9.07 1.796,0.648 4.39,1.871 5.832,2.52 2.734,1.371 2.734,1.441 2.445,3.457 -0.144,0.863 -0.574,2.015 -0.863,2.089 -0.719,0.504 -7.199,-3.168 -9.215,-5.043 -2.016,-2.16 -2.16,-2.23 -1.731,-0.359 1.227,3.242 0.29,5.402 -1.367,3.746 -1.222,-1.441 -1.297,-0.937 -0.504,2.375 1.368,3.887 2.739,5.473 6.481,7.344 3.242,1.586 3.312,2.09 2.305,5.258 -1.512,3.597 -3.243,6.191 -4.176,6.191 -0.578,-0.074 -2.449,-0.648 -4.25,-1.73 m 6.121,-12.957 c -3.742,-1.731 -4.246,-2.235 -3.383,-3.891 0.215,-0.863 0.43,-1.656 0.648,-2.086 0.36,-0.219 6.696,2.879 7.415,3.742 0.433,0.578 -0.864,3.528 -1.438,3.457 -0.363,0 -1.875,-0.504 -3.242,-1.222 m -62.063,-0.219 c -0.578,-0.574 -1.008,-1.727 -1.152,-2.375 -0.145,-1.008 -0.434,-1.945 -0.504,-2.594 -0.289,-2.086 1.437,-15.191 2.445,-17.711 0.504,-1.437 1.516,-2.808 2.379,-3.383 0.789,-0.504 1.656,-1.441 1.871,-1.945 0.36,-0.648 1.008,-1.152 1.582,-1.152 0.793,0 0.868,0.218 0.364,0.722 -0.504,0.649 -0.649,1.368 -0.075,1.368 0.075,0 1.368,-0.938 2.594,-2.09 2.52,-2.305 3.887,-2.879 2.949,-1.153 -0.504,1.512 0.434,1.801 2.45,0.793 1.8,-0.863 3.242,-0.504 2.449,0.578 -1.008,0.934 -0.649,3.024 0.429,3.024 1.083,0 1.227,0.793 0.219,1.656 -0.359,0.36 -0.722,1.078 -0.722,1.582 0,1.082 -0.504,1.586 -4.68,3.746 -2.305,1.223 -3.887,1.582 -5.184,1.512 -1.871,-0.219 -1.941,-0.219 -1.152,-1.082 0.434,-0.43 1.441,-0.863 2.234,-0.863 1.582,0 6.911,-2.59 6.911,-3.457 0,-0.215 -0.504,-0.145 -1.223,0.144 -2.09,0.938 -2.235,0.578 -0.434,-1.367 1.657,-1.801 1.946,-3.023 0.434,-3.023 -0.36,0 -1.082,0.863 -1.586,1.726 -0.863,1.945 -1.438,2.09 -1.438,0.289 0,-0.719 -0.144,-1.441 -0.503,-1.586 -0.579,-0.644 -1.946,1.227 -1.946,2.809 0,1.367 -0.504,2.738 -1.297,2.738 -0.289,0 -0.574,-0.793 -0.863,-1.875 -0.289,-0.933 -0.719,-1.871 -1.008,-1.871 -0.719,0 -2.375,2.664 -2.375,4.031 0,0.793 -0.289,1.875 -0.937,2.379 -0.864,0.719 -1.008,2.016 -1.442,6.336 -0.285,2.879 -0.359,6.117 -0.14,7.344 0.504,3.238 1.367,3.598 8.062,3.023 3.098,-0.289 6.192,-0.648 6.985,-1.082 0.648,-0.285 2.375,-1.726 3.671,-3.168 l 2.305,-2.445 -0.359,1.941 c -0.219,1.008 -0.504,2.45 -0.649,2.954 -0.144,0.937 0.071,1.296 0.934,1.511 0.793,0.434 1.367,0 3.023,-2.086 2.16,-2.953 3.098,-2.953 1.586,-0.144 -2.519,4.39 -2.664,4.535 -7.847,4.535 -2.45,0 -7.563,0.144 -10.946,0.434 -6.121,0.429 -6.406,0.359 -7.414,-0.723 m 47.879,-7.992 c -1.871,-5.039 -2.593,-7.918 -1.152,-4.68 0.719,1.082 1.801,3.168 2.734,4.395 1.657,2.375 2.02,4.46 0.867,4.46 -0.433,0 -1.371,-2.015 -2.449,-4.175 m -42.984,-2.086 c -1.153,-1.367 -0.864,-1.871 1.297,-1.801 1.582,0.07 3.961,-0.793 11.808,-4.824 14.614,-7.344 13.391,-6.481 15.911,-12.313 2.878,-7.633 4.609,-10.152 7.054,-11.879 1.297,-1.082 2.305,-2.015 2.305,-2.304 0,-0.434 -1.008,-1.297 -2.305,-2.231 -2.301,-1.441 -2.375,-1.441 -6.191,-0.937 -2.59,0.215 -4.321,0.215 -4.895,0 -2.879,-1.801 -9.937,-13.535 -11.23,-19.153 -0.364,-1.222 -1.516,-3.672 -2.594,-5.398 -1.152,-1.731 -1.871,-3.313 -1.727,-3.527 0.504,-1.008 1.727,-0.364 3.383,1.582 0.938,1.082 1.727,1.8 1.801,1.441 0.43,-1.801 2.305,-4.395 3.887,-5.547 0.863,-0.644 1.871,-1.652 2.09,-2.375 0.285,-0.719 0.644,-0.793 1.007,-0.359 0.864,1.008 0.789,2.09 -0.363,3.527 -1.293,1.656 -0.285,1.731 1.227,0.145 0.863,-0.938 1.078,-0.938 1.656,-0.289 0.574,1.082 -1.367,2.808 -3.961,3.531 -5.039,1.512 -5.473,2.519 -4.176,7.414 1.008,4.105 2.016,5.328 4.61,6.406 2.664,1.012 9.285,0.938 10.292,-0.07 0.938,-1.153 2.883,-4.391 2.883,-4.75 0,-0.219 -0.503,-0.434 -1.586,-0.723 -0.792,-0.215 -2.304,-0.863 -2.953,-1.656 -1.511,-1.512 -2.375,-4.75 -1.367,-5.688 0.289,-0.503 0.504,-0.503 0.723,0 0.14,0.504 0.863,1.442 1.367,2.235 1.656,2.156 3.672,2.375 11.16,1.437 11.16,-1.437 13.535,-2.59 14.184,-6.047 0.144,-1.082 0.504,-2.449 0.719,-2.878 0.289,-0.938 0.214,-1.008 1.585,3.597 0.36,2.52 0.36,2.809 -0.074,3.961 -1.222,1.801 -3.527,2.664 -7.847,3.024 -4.61,0.359 -8.567,1.511 -11.086,2.808 -2.016,1.297 -5.114,5.184 -5.114,6.77 0,1.007 2.231,2.664 4.895,2.879 2.664,0.503 2.738,2.23 0.578,4.679 -2.664,2.809 -1.656,3.239 5.902,3.024 4.176,0 6.77,0.074 7.418,0.648 1.368,0.649 3.672,3.098 3.672,3.742 0,1.227 -3.023,1.946 -7.344,1.946 h -4.465 l 1.368,1.586 c 1.367,1.293 1.441,1.511 1.222,3.671 -0.07,1.153 -0.359,2.446 -0.718,2.805 -0.938,1.012 -3.024,0.504 -7.344,-1.726 -2.734,-1.512 -3.528,-1.801 -3.887,-1.153 -0.144,0.289 -1.875,3.602 -3.746,6.985 l -3.383,6.48 -4.25,2.16 c -2.375,1.078 -5.469,2.52 -6.98,3.239 -2.02,0.792 -2.953,1.441 -3.168,2.234 -0.074,0.574 -0.219,1.726 -0.434,2.519 -0.504,1.442 -0.719,1.582 -3.312,1.582 -1.368,0 -2.809,-0.359 -3.024,-0.644 -0.289,-0.363 -1.082,-0.363 -2.664,0.215 -2.375,1.008 -2.879,1.008 -3.816,0 m 19.367,-1.442 c 0,-2.375 1.227,-4.246 2.594,-4.031 0.504,0.289 2.519,-0.289 4.679,-1.008 l 3.817,-1.586 3.816,2.09 3.887,2.086 -0.793,1.442 c -1.223,2.16 -2.016,2.089 -5.976,-0.145 l -3.309,-1.801 -3.746,2.449 c -2.086,1.223 -4.106,2.375 -4.391,2.375 -0.289,0 -0.578,-0.933 -0.578,-1.871 m 42.481,-1.871 c -3.817,-2.23 -5.903,-4.25 -7.489,-7.054 -3.886,-7.129 -0.215,-12.961 10.297,-16.778 1.801,-0.648 3.527,-1.656 4.176,-2.16 0.937,-0.937 0.793,-2.305 -0.938,-13.176 -0.718,-4.175 -1.437,-9.718 -1.796,-12.312 -0.723,-7.055 -1.442,-10.801 -4.465,-17.422 -1.946,-4.824 -3.098,-6.625 -5.832,-9.867 -3.457,-3.742 -3.672,-4.102 -6.192,-4.606 -3.168,-0.722 -3.89,-1.586 -1.371,-2.16 l 1.656,-0.359 -2.23,-3.028 c -1.151,-1.726 -2.305,-3.168 -2.52,-3.238 -0.074,-0.144 -0.289,0 -0.503,0.434 -1.008,0.933 -3.528,0.574 -5.688,-1.082 -1.367,-0.864 -2.234,-1.727 -2.234,-2.086 0,-0.793 1.297,-0.649 2.664,0.285 1.73,0.937 3.457,0.937 3.457,0 0,-0.574 -0.36,-1.871 -1.008,-2.879 -0.719,-1.945 -0.863,-2.09 -2.594,-1.871 -1.437,0.215 -1.871,-0.074 -3.527,-1.586 -2.086,-2.445 -3.313,-3.094 -5.832,-3.238 -1.153,-0.145 -2.231,-0.504 -2.664,-1.008 -0.36,-0.36 -0.719,-3.024 -0.934,-7.703 -0.145,-6.914 -0.145,-7.274 -2.09,-12.168 -1.078,-2.739 -2.734,-6.481 -3.597,-8.137 -1.227,-2.594 -1.801,-2.953 -2.739,-2.809 -1.871,0.145 -5.039,-0.937 -6.406,-2.234 -1.082,-1.223 -1.367,-2.59 -0.219,-2.156 0.434,0.285 0.867,-0.219 1.227,-1.442 0.648,-2.16 1.656,-1.945 2.086,0.289 0.359,2.016 1.226,2.446 2.015,1.008 0.219,-0.433 0.649,-0.722 1.082,-0.504 1.008,0.36 7.129,9.575 8.422,12.313 1.801,4.031 2.664,9.933 2.664,16.558 v 6.407 l 1.372,-0.36 c 1.293,-0.144 2.804,0.36 5.038,1.153 3.962,1.726 5.114,1.586 4.61,-0.793 -0.145,-1.008 -0.508,-3.817 -0.648,-6.696 -0.579,-5.183 -1.372,-6.839 -2.52,-5.687 -0.434,0.359 -1.012,1.512 -1.082,2.809 -0.07,1.152 -0.434,2.16 -0.719,2.16 -0.578,0 -0.289,-6.551 0.359,-8.282 0.145,-0.359 -1.152,-3.093 -3.312,-6.984 -1.945,-3.527 -4.609,-8.711 -5.832,-11.664 -1.945,-4.535 -2.664,-5.688 -3.961,-6.406 -2.519,-1.367 -2.016,-3.313 0.504,-3.313 1.801,0 3.457,2.449 7.703,11.879 2.525,5.184 5.258,10.731 5.906,12.672 1.008,1.656 2.161,3.672 2.735,4.465 1.875,2.305 2.09,3.527 2.09,8.64 0.07,8.926 2.086,14.399 9.429,23.184 8.137,9.719 9.365,11.52 12.243,17.711 2.878,6.77 4.535,12.602 5.253,19.801 0.793,5.113 2.379,14.902 4.036,24.191 0.789,3.313 1.222,7.059 1.367,8.426 0.289,2.52 0.289,2.52 -1.512,3.672 -3.891,2.305 -7.992,0.574 -7.992,-3.242 v -1.727 l -2.235,1.582 c -5.542,3.457 -7.125,7.348 -4.101,11.16 0.574,1.008 1.656,1.875 2.016,1.875 0.29,-0.074 6.839,2.59 7.632,3.024 0.145,0.215 -1.007,3.886 -1.441,4.246 -0.289,0.144 -1.945,-0.574 -3.816,-1.727 m -19.872,-35.281 c 0.145,-0.43 0.793,-0.719 1.223,-0.793 4.395,-0.574 17.785,-3.672 18.359,-4.316 1.227,-1.153 1.372,-0.868 1.297,2.015 l -0.07,2.52 -1.227,-0.863 c -1.148,-1.083 -1.292,-1.083 -4.246,0 -1.586,0.503 -4.754,1.007 -6.695,1.222 -1.945,0.145 -4.609,0.504 -6.051,0.719 -2.23,0.219 -2.803,0.144 -2.59,-0.504 m -40.824,-1.941 c -0.433,-0.938 -0.793,-1.082 -1.297,-0.723 -0.429,0.144 -1.582,0.723 -2.304,0.863 -1.368,0.289 -1.512,0.219 -1.512,-0.933 0,-2.016 -1.438,-3.602 -2.879,-3.602 -1.945,0 -2.375,0.578 3.098,-6.336 1.726,-2.305 3.671,-4.969 4.39,-6.262 1.801,-3.027 4.895,-10.152 5.832,-13.539 1.223,-4.679 5.543,-9.933 7.992,-9.933 1.946,0 5.903,6.191 5.903,9.359 0,1.656 -1.293,2.449 -3.383,2.449 -0.863,0 -1.656,0.575 -2.594,2.086 -0.863,1.082 -1.512,1.871 -1.726,1.657 -0.575,-0.649 1.441,-4.032 3.097,-5.254 2.016,-1.512 2.16,-2.594 0.864,-5.258 -2.161,-3.961 -4.536,-3.238 -2.809,0.719 0.793,1.73 0.938,2.449 0.574,2.953 -0.719,0.793 -1.512,0.074 -2.519,-2.45 l -0.719,-2.015 -1.008,1.441 c -0.648,0.864 -1.223,3.098 -1.801,5.039 -0.504,2.016 -1.297,4.68 -2.015,6.336 -1.367,3.098 -6.192,11.305 -8.063,13.969 l -1.586,1.945 1.586,-0.363 c 1.656,-0.359 1.871,0 0.789,1.586 -0.789,1.297 -1.008,3.457 -0.285,3.457 0.215,0 0.934,-0.723 1.367,-1.586 0.575,-0.934 1.512,-1.871 1.871,-2.23 1.008,-0.504 1.082,-0.434 0.793,1.078 -0.359,2.015 0.504,2.234 1.078,0.433 0.504,-1.152 0.868,-1.222 1.876,-1.082 1.007,0.289 1.511,0.075 1.656,-0.429 0.14,-0.434 0.359,-1.801 0.718,-3.313 0.36,-1.297 0.864,-2.519 1.079,-2.519 0.218,0 0.218,1.656 0.218,3.742 0,2.953 -0.074,3.89 -1.152,5.761 -1.227,2.375 -2.016,3.024 -2.016,1.512 0,-0.433 -0.074,-0.719 -0.363,-0.719 -0.504,0 -3.383,2.231 -3.383,2.665 0,0.863 -0.863,0.574 -1.367,-0.504 m 45.793,-2.305 c 0,-0.219 1.078,-0.793 2.16,-1.227 1.223,-0.359 3.528,-2.015 5.399,-3.527 3.672,-2.879 5.976,-3.598 5.976,-1.727 0,0.649 -1.007,1.582 -4.105,2.954 -5.328,2.734 -9.43,4.175 -9.43,3.527 m -27.074,-13.176 c 0,-0.648 3.242,-5.976 4.394,-7.273 l 1.223,-1.153 v 1.731 c 0,2.015 -1.726,5.039 -3.742,6.262 -1.371,0.793 -1.875,1.007 -1.875,0.433"
         style="fill:#000000;fill-opacity:1;fill-rule:nonzero;stroke:none"
         id="path90" />
    </g>
    <rect
       style="fill:#000000;stroke:none;stroke-width:0.912605;stop-color:#000000"
       id="rect1555"
       width="50"
       height="120"
       x="91.790733"
       y="56.016479" />
    <path
       d="m 124.47324,74.878477 c 0.25329,0.227189 0.9398,0.660047 1.59985,1.040342 0.66145,0.381705 1.6771,1.168752 2.2352,1.752953 0.6103,0.559505 1.7018,1.499305 2.4638,2.057399 1.59984,1.1176 1.77764,1.599848 1.2954,2.666648 -0.1778,0.381705 -0.5073,0.838905 -0.68475,1.041752 l -0.3817,0.4064 v -0.431447 c 0,-0.355247 -0.10231,-0.4064 -0.50871,-0.355247 -0.78669,0.100542 -0.73589,-0.406753 0.0511,-0.686506 1.21956,-0.381705 1.21956,-0.837847 0,-1.726494 -0.43145,-0.306211 -1.14265,-0.915106 -1.57374,-1.372658 l -0.81315,-0.888648 -0.78811,0.253295 c -1.14265,0.279753 -1.21814,0.279753 -1.2954,0.05115 0,-0.07585 0.20391,-0.304447 0.55951,-0.507294 0.30444,-0.203906 0.5842,-0.406401 0.5842,-0.483659 0,-0.380294 -0.4064,-0.380294 -1.14371,0.101953 -0.48225,0.279753 -0.91369,0.457553 -1.01565,0.457553 -0.30444,0 -0.1778,-0.482248 0.3556,-0.9906 0.27976,-0.304801 0.45756,-0.558095 0.4064,-0.660401 -0.20249,-0.2286 -0.99095,0.4826 -1.49789,1.219553 -0.4064,0.787047 -1.0929,1.218495 -1.3462,0.989542 -0.0512,-0.04939 0.30445,-0.608894 0.78669,-1.2954 0.45756,-0.608895 0.81316,-1.218142 0.73731,-1.2954 -0.0512,-0.02469 -0.48366,-0.0755 -1.01706,-0.0755 -0.50694,0.02611 -0.91369,-0.05115 -0.99095,-0.151694 -0.12665,-0.228953 0.86431,-1.245658 1.2707,-1.372658 0.15311,-0.07585 0.45756,0.07585 0.7112,0.255058 m -4.6235,2.284589 c -0.25365,0.508706 -0.68474,1.372658 -1.01565,1.879953 -1.1684,1.727905 -1.2954,2.8702 -0.55809,4.598458 0.5334,1.040342 0.5334,1.1176 0.1778,1.1176 -0.30445,0 -1.90571,-2.032706 -2.2352,-2.9972 -0.25506,-0.661458 -0.30445,-1.4732 -0.0508,-1.626306 0.0508,-0.07585 0.1778,0.253648 0.35525,0.686506 0.3556,0.888647 0.58455,0.862542 0.60924,0 0,-0.153106 0.3556,-0.9398 0.66005,-1.626306 0.4064,-0.737305 0.66146,-1.397352 0.66146,-1.523999 0,-0.304448 -1.09291,-0.07585 -2.08351,0.253647 -0.5842,0.254705 -0.66004,0.330553 -0.91369,1.397352 -0.25506,0.837848 -0.30445,1.472848 -0.25506,2.310695 0.10195,1.270705 -0.0494,1.499305 -0.48225,0.712611 -0.20249,-0.330906 -0.32949,-0.915106 -0.32949,-1.8796 0,-0.788458 -0.0769,-1.499306 -0.12806,-1.550458 -0.0247,-0.101953 -0.60889,0.127 -1.21814,0.482247 -0.9398,0.508705 -1.09291,0.737305 -1.42205,1.626305 -0.5595,1.270353 -0.66146,3.021895 -0.45755,4.825647 0.10054,0.788459 0.1778,1.4224 0.12665,1.499306 -0.0508,0.04974 -0.33056,-0.330553 -0.5842,-0.914753 l -0.50836,-0.990953 -0.81315,0.127 c -0.40499,0.07691 -1.04034,0.254706 -1.32009,0.381706 l -0.5581,0.329142 0.3803,0.432858 c 0.25364,0.253294 0.66004,0.635 1.01564,0.888647 0.50836,0.482247 0.50836,0.5334 0.30445,1.142647 -0.12665,0.2794 -0.22719,0.533048 -0.25365,0.533048 -0.0508,0 -0.71084,-0.253648 -1.3977,-0.558095 -1.03999,-0.482247 -1.2947,-0.737305 -1.4217,-1.1176 l -0.0759,-0.431094 -0.45755,0.533047 c -0.30445,0.3048 -0.83785,1.320094 -1.24425,2.3622 -0.50835,0.964494 -1.0929,2.259894 -1.3215,2.793294 -1.3201,2.412647 -2.18405,4.902906 -2.6155,7.44255 -0.12664,0.86396 -0.22895,1.651 -0.22895,1.6757 0.0759,0.0512 0.25365,-0.25365 0.38206,-0.58279 0.22719,-0.38171 0.50694,-0.66146 0.55809,-0.66146 0.762,0 3.0727,1.3462 2.8702,1.67711 -0.0508,0.0759 0.1517,0.27975 0.37995,0.43109 0.15345,0.22895 0.4071,0.43145 0.4071,0.63535 0,0.27976 -0.0512,0.27976 -0.43145,-0.0247 -0.33055,-0.2039 -0.5334,-0.25505 -0.63535,-0.12805 -0.10195,0.12805 -0.53305,0.0508 -1.14229,-0.22896 -1.21956,-0.63394 -1.49931,-0.60889 -2.4638,0.15311 l -0.837852,0.71085 v -1.1423 c 0,-2.6677 1.853492,-8.560149 3.555292,-11.304054 0.9398,-1.497895 1.44816,-2.666295 1.44816,-3.5306 0.0251,-1.777648 0.63394,-2.868789 2.64195,-4.570942 0.68474,-0.559505 1.44674,-1.372305 1.75119,-1.779058 0.33091,-0.355247 1.01706,-1.015647 1.651,-1.395942 0.63535,-0.432505 1.72791,-1.143705 2.43911,-1.601258 0.762,-0.482247 1.67569,-1.015647 2.15935,-1.244247 0.40675,-0.100542 1.37125,-0.456142 2.0574,-0.735895 0.78705,-0.304447 1.651,-0.432858 2.31105,-0.432858 h 0.96449 l -0.4064,0.9398 m 3.12561,-0.304455 c 0.2025,0.5334 -0.0773,0.863953 -0.8643,0.863953 -0.9645,0 -0.9906,0.07585 -0.6089,1.295399 0.2025,0.735895 0.2025,0.787048 -0.0261,0.787048 -0.22895,0 -0.45755,-0.329495 -0.6604,-1.040342 -0.50835,-1.448505 -0.48224,-1.804106 0.0512,-1.981906 0.66005,-0.330552 1.98014,-0.279752 2.10855,0.07585 m 5.1301,3.7084 c 0.8382,1.041752 0.8643,1.321505 0.1023,0.965905 -0.7112,-0.330553 -1.8041,-0.3556 -2.54141,-0.07726 -0.30444,0.128411 -0.96449,0.255059 -1.44674,0.381706 -0.43286,0.05115 -0.762,0.1778 -0.762,0.202847 0,0.0508 0.2025,0.432505 0.5842,0.839258 0.7112,0.862542 0.63535,1.1176 -0.2286,0.684742 -0.3556,-0.2286 -0.81315,-0.7112 -1.16875,-1.371247 -0.762,-1.448153 -0.86395,-1.726495 -0.45755,-1.548695 0.1531,0.07585 0.762,0.151342 1.3215,0.202494 0.9137,0.152753 1.16875,0.0508 2.33574,-0.5334 0.71261,-0.431094 1.34656,-0.686152 1.39736,-0.686152 0.0512,0 0.43285,0.4064 0.86395,0.9398 m -15.06185,0.5842 c 0.0512,0.330905 0.12665,1.1176 0.12665,1.7018 0,1.550458 0.43145,3.734505 0.91369,4.648199 0.45756,0.9398 1.4732,2.032706 2.28636,2.566106 l 0.66145,0.4064 -0.9151,-0.07726 c -0.7867,-0.07585 -1.1423,-0.227189 -1.75295,-0.684742 -0.3803,-0.381706 -0.762,-0.559506 -0.762,-0.5334 -0.1517,0.100542 0.27975,2.539647 0.63535,3.275541 0.27975,0.762 0.43145,0.990953 1.4732,1.499306 0.63535,0.3556 1.21955,0.686506 1.27035,0.762 0.10054,0.101953 -0.0769,1.168753 -0.2039,1.346553 -0.1778,0.202494 -3.07305,-1.448506 -3.30165,-1.8796 -0.25365,-0.279753 -0.4064,-0.990953 -0.48225,-2.261306 -0.0511,-0.964847 -0.20426,-2.691341 -0.27975,-3.759552 -0.3048,-2.259895 -0.20285,-6.754989 0.10195,-7.339189 0.12665,-0.279753 0.12665,-0.228953 0.2286,0.329142 m 8.71185,1.346552 c 0,1.1176 0.3556,1.548695 1.39735,2.083506 0.4826,0.202494 0.96485,0.456142 0.96485,0.558094 0,0.279753 -2.84445,0.101953 -3.09915,-0.202494 -0.1517,-0.153104 0.12805,-2.641951 0.35524,-3.074456 0.1778,-0.380295 0.38171,-0.100542 0.38171,0.635352 m 6.14609,1.270353 c 0.15311,0.100542 0.27976,0.3556 0.27976,0.482247 0,0.253648 -0.12665,0.3048 -0.71085,0.202848 -0.66005,-0.127 -0.7359,-0.04974 -0.9137,0.305858 -0.17921,0.304447 -0.1531,0.506942 0.1778,0.786694 0.25365,0.3556 0.30445,0.3556 0.7359,0.07585 0.2286,-0.1778 0.45755,-0.304447 0.53305,-0.253647 0.127,0.1778 0.0512,1.853495 -0.12665,2.082447 -0.0759,0.152753 -0.48225,0.457553 -0.83785,0.635 -0.762,0.3556 -0.83926,0.330906 -1.4993,-0.9398 -0.30445,-0.5842 -0.30445,-0.735894 -0.10055,-0.837847 0.1517,-0.0508 0.45615,0.07585 0.7112,0.330906 0.2533,0.1778 0.5842,0.380294 0.66005,0.380294 0.35525,0 0.10195,-0.4064 -0.43286,-0.762 -0.43144,-0.330905 -0.48224,-0.482247 -0.48224,-1.142294 0,-0.5334 0.0773,-0.839258 0.3556,-1.042106 0.53304,-0.330552 1.2954,-0.508352 1.65064,-0.304447 m -7.54309,1.0668 c 0.7881,1.8796 2.0574,2.386542 3.2011,1.397353 1.19345,-0.966258 1.2954,-0.610659 0.3803,0.811389 -0.5581,0.9398 -0.63535,0.966258 -1.24425,0.864305 -2.1844,-0.380647 -2.9464,-1.1176 -3.07305,-2.793294 -0.0773,-1.4732 0.2025,-1.575153 0.7359,-0.279753 m 10.4648,0.431092 c 0.73695,2.210505 0.60889,2.768599 -0.3048,1.372658 -0.50835,-0.863953 -0.50835,-0.839259 -0.73731,0.608894 -0.17744,1.0668 -0.43109,0.864306 -0.43109,-0.330553 v -1.142286 l -0.25365,0.608894 c -0.3556,0.889 -0.6103,0.813153 -0.48225,-0.126647 0.2025,-1.853494 0.2025,-1.8288 0.86255,-2.0066 0.99095,-0.152752 1.01564,-0.126647 1.34655,1.015648 m -13.4112,2.133247 c 1.49789,0.432858 2.0066,1.245658 1.80375,3.125258 -0.2039,1.675694 -0.27975,2.031294 -0.5595,2.031294 -0.12665,0 -0.3803,0.07585 -0.50695,0.153106 -0.53481,0.329141 -0.1778,0.558094 0.66005,0.558094 0.48225,0.02611 0.68474,0.279753 0.2025,0.457553 -0.81316,0.381706 -3.0219,-0.1778 -3.85975,-1.015647 -0.25505,-0.255059 -0.27975,-0.330906 -0.1531,-0.915106 0.1778,-0.457552 0.3309,-0.558094 0.55809,-0.506941 0.15311,0.04939 0.81316,0.202494 1.39736,0.404989 0.5842,0.128058 1.1437,0.179211 1.24424,0.101952 0.0265,-0.07585 0.12841,-0.635352 0.1778,-1.269294 0.12841,-1.245658 0.12841,-1.245658 -0.45614,-1.854553 -0.3817,-0.5334 -0.73695,-0.686505 -1.04175,-0.686505 -0.50835,0 -1.06645,-0.404989 -1.06645,-0.735895 0,-0.101953 1.06645,-0.02611 1.59985,0.151695 m -6.42585,1.830211 c 0.40675,0.533047 0.81315,1.802341 1.3462,3.937 0.5581,1.955447 0.98954,2.539647 2.61585,3.352799 1.1684,0.482248 1.3462,0.684742 1.3462,1.066448 0,0.837847 -0.4064,0.990952 -1.62595,0.482247 -1.2446,-0.508353 -1.6757,-0.863953 -1.6757,-1.422047 0,-0.203906 -0.4826,-1.397353 -1.0668,-2.490259 -0.81315,-1.524 -1.01706,-1.928988 -1.01706,-1.573388 0,0.278341 0.0512,0.710847 0.10196,0.964494 0.10195,0.4064 0.0759,0.508353 -0.0508,0.508353 -0.3556,0 -0.66005,-0.559506 -1.19345,-1.828447 l -0.43145,-1.219553 0.3295,-1.0668 c 0.3817,-1.270353 0.762,-1.550106 1.3215,-0.710847 m -3.5306,0.533047 1.04034,0.685094 -0.0755,0.737306 c -0.0759,0.5842 0,0.863953 0.68616,1.9304 0.50694,0.633941 1.19344,1.624894 1.54904,2.108553 0.73731,0.888647 0.73731,0.913694 0.30445,0.710847 -0.66005,-0.279753 -1.06645,-0.710847 -2.51354,-2.743553 -1.16875,-1.677105 -1.98155,-2.361847 -2.36326,-2.082094 -0.38065,0.253294 -0.15169,0.608894 0.4572,0.811741 0.68651,0.305859 1.14406,0.762 0.96626,1.295047 -0.0511,0.204259 0.15134,0.610659 0.32914,0.990953 0.3048,0.381706 0.63535,1.397353 0.91511,2.134658 0.25364,1.268942 0.66004,2.106789 1.57374,3.783894 l 0.27975,0.4826 -0.5334,-0.45755 c -0.30445,-0.228955 -0.73589,-0.762355 -1.016,-1.091496 -0.71049,-1.092906 -1.14335,-1.575153 -1.37054,-1.575153 -0.55951,0 0.762,2.615499 1.85349,3.683349 l 0.83785,0.96485 0.5842,-0.5334 c 0.25471,-0.38171 0.61031,-0.7373 0.66146,-0.9398 0.12665,-0.30445 0.25365,-0.27975 1.37125,0.33091 0.66004,0.32914 1.26894,0.71084 1.26894,0.83784 0.0511,0.12665 0,0.48225 -0.0759,0.7867 -0.2533,0.63535 -0.8128,0.762 -1.1931,0.2286 -0.0759,-0.12665 -0.45755,-0.3803 -0.7373,-0.53305 -0.5581,-0.22895 -0.63394,-0.22895 -1.01565,0.0508 l -0.3556,0.3048 1.24425,0.762 c 0.7373,0.38171 1.34655,0.762 1.39735,0.8128 0.025,0.0251 -0.10195,0.3048 -0.27975,0.7112 l -0.2533,0.63535 -1.16875,-0.61066 c -0.63535,-0.40498 -1.19345,-0.68474 -1.27071,-0.68474 -0.0755,0 -0.48224,-0.61066 -0.96449,-1.3215 -0.55951,-0.7359 -0.96449,-1.2954 -0.9906,-1.2693 0,0.0247 -0.127,0.6851 -0.22895,1.4732 -0.2025,1.80234 -0.7867,3.3775 -1.62454,4.3173 -0.48366,0.5087 -0.9398,0.762 -1.72826,1.04175 -1.47285,0.40675 -1.59985,0.78705 -0.6089,1.651 0.4064,0.33091 0.7867,0.5842 0.9398,0.5842 0.12665,0 0.2533,0.10195 0.2533,0.20285 0,0.12806 -0.32914,0.15275 -0.9906,0.0508 -0.48225,-0.0759 -1.1176,-0.12665 -1.4471,-0.12665 -0.48366,-0.0251 -0.50835,0 -0.4064,0.86395 0.0759,0.9398 0.45756,3.65725 0.7112,4.2926 0.2025,0.50694 0.68474,0.5334 1.7018,0.0508 0.50694,-0.15275 1.39736,-0.4064 2.13325,-0.50835 0.762,-0.0511 2.1082,-0.27975 2.9972,-0.45755 0.86395,-0.1517 1.62595,-0.3556 1.67711,-0.32914 0.0247,0.0755 -0.20391,0.32914 -0.40676,0.60889 -0.6103,0.5842 -1.27035,0.73731 -2.94604,1.0668 -2.46416,0.43109 -2.92171,0.55915 -3.55671,1.27035 -0.38029,0.3803 -0.68686,0.83785 -0.7112,1.1176 -0.15311,0.5842 0.5842,3.45334 0.9398,4.01285 l 0.4064,0.50835 0.7112,-0.50835 c 0.43145,-0.25365 1.27071,-1.06645 1.93075,-1.75295 1.3462,-1.47285 1.24425,-1.44674 3.70805,-0.45756 1.70215,0.66146 2.08245,0.68651 3.09951,0.0512 0.63394,-0.3556 0.83784,-0.38029 0.83784,-0.20249 0,0.45755 -0.99095,1.59985 -1.75295,2.15935 -0.78705,0.5334 -0.86395,0.5581 -3.65725,0.58279 -3.3528,0 -3.81035,0.1778 -3.81035,1.09291 0,0.33055 0.15311,0.83784 0.25365,1.06644 l 0.33055,0.45756 0.50871,-0.50836 c 0.45614,-0.45614 0.68474,-0.55809 1.16698,-0.5334 0.78846,0.10196 0.89042,0.43286 0.1778,0.5842 -0.45614,0.0759 -1.1176,0.58456 -1.1176,0.889 0,0.0773 0.27976,0.45756 0.78811,0.78811 0.7112,0.60925 0.78705,0.63535 1.34655,0.40675 0.66005,-0.30621 1.82845,-0.12841 2.286,0.3803 l 0.40676,0.27975 -0.63536,0.43109 c -0.68615,0.48225 -0.7112,0.81316 -0.1531,1.34656 0.27975,0.30444 0.4826,0.35524 0.66004,0.2286 0.63536,-0.63536 2.10856,-0.55951 2.54142,0.10195 0.22718,0.22895 0.17744,0.3556 -0.30622,0.762 -0.762,0.68509 -0.762,1.14265 -0.0494,2.08245 l 0.66005,0.762 1.4732,-0.0512 c 1.24425,-0.10196 1.4979,-0.0758 1.7526,0.22895 0.3048,0.3817 0.3048,0.3817 -0.4325,0.48225 -0.78705,0.10195 -1.4732,0.50835 -1.4732,0.86395 0,0.127 0.27975,0.60925 0.61065,1.0668 0.50695,0.762 0.63359,0.83784 0.88865,0.71084 0.4064,-0.27975 1.80234,-0.27975 2.4377,0.0512 0.3048,0.0759 0.61065,0.3556 0.6865,0.50836 0.15134,0.32949 0.0755,0.3556 -0.76235,0.32949 -0.73695,-0.0251 -0.96591,0.0508 -1.21955,0.4064 -0.30445,0.45755 -0.30445,0.45755 0.10195,1.3462 0.45755,0.889 0.45755,0.889 0.91369,0.68651 0.20391,-0.20391 0.66146,-0.25506 0.96626,-0.25506 0.68615,0 1.7018,0.66146 1.85314,1.16875 0.0265,0.25471 -0.12664,0.33055 -0.63359,0.33055 -0.9151,0 -1.52435,0.27976 -1.52435,0.68616 0,0.20284 0.20285,0.73589 0.3803,1.21849 l 0.43144,0.8389 0.86396,-0.10195 c 1.2446,-0.0508 2.10855,0.5087 2.10855,1.34655 0,0.0508 -0.25365,0.0508 -0.5842,0 -0.3048,-0.127 -0.9137,-0.20391 -1.27071,-0.127 l -0.7112,0.0251 0.0773,0.9398 c 0.0511,1.57515 0.22896,1.80375 1.04035,1.80375 0.81315,0 1.4993,0.48225 1.651,1.1423 0.12805,0.3048 0,0.3048 -0.86255,0.22895 -1.2707,-0.10195 -1.59984,0.27975 -1.59984,1.80375 v 1.04034 h 0.55809 c 0.8128,0 1.7265,1.04176 1.21955,1.39736 -0.127,0.0759 -0.3556,0 -0.45755,-0.12665 -0.66005,-0.7112 -1.6263,-0.1778 -1.80375,0.9398 -0.1009,0.5842 -0.1009,0.60925 0.48366,0.60925 0.73589,0 1.32009,0.48365 1.32009,1.11724 0,1.2954 -3.27695,3.81036 -3.78425,2.84586 -0.0508,-0.0773 0.27835,-1.24425 0.66005,-2.69275 0.762,-2.53965 1.14265,-4.826 1.14265,-7.3145 0,-2.64195 -1.6002,-7.2651 -3.2759,-9.80475 -0.48365,-0.63535 -1.27035,-1.8288 -1.82844,-2.66806 -1.44851,-2.23519 -3.96311,-5.05459 -6.88481,-7.79673 -1.82845,-1.651 -2.86915,-2.43911 -3.30165,-2.5908 -1.16875,-0.30445 -1.16875,-0.3556 -0.9137,-0.61066 0.3295,-0.22719 0.25365,-0.30445 -0.22895,-0.88865 -0.71085,-0.78705 -1.42205,-2.5908 -2.18405,-5.53685 -0.7373,-2.9972 -1.77905,-9.57615 -1.7018,-10.26089 0.1517,-0.66146 0.81316,-1.04175 2.33575,-1.2954 0.63535,-0.10195 1.42345,-0.38171 1.65241,-0.55951 1.1176,-0.78704 1.98014,-2.9972 2.18404,-5.28355 0.1778,-1.77765 -0.27975,-2.361847 -2.31245,-3.199694 -0.63359,-0.2286 -1.5487,-0.660048 -2.0574,-0.889 -0.9645,-0.483659 -0.9645,-0.508353 -0.86255,-1.219553 0.0508,-0.304447 0.2025,-0.710847 0.30445,-0.736953 0.25365,-0.1778 2.53965,1.1176 3.25085,1.779058 0.7112,0.762 0.762,0.786695 0.61066,0.126648 -0.43286,-1.143706 -0.10231,-1.905706 0.48224,-1.321506 0.4311,0.508353 0.45756,0.330553 0.1778,-0.837847 -0.4826,-1.371247 -0.96625,-1.930753 -2.28635,-2.5908 -1.1437,-0.559506 -1.1684,-0.737306 -0.81315,-1.854905 0.5334,-1.268942 1.14406,-2.184048 1.4732,-2.184048 0.2039,0.02611 0.86395,0.2286 1.4993,0.610306 m -2.15935,4.570941 c 1.3201,0.610659 1.4979,0.788459 1.19345,1.372659 -0.0759,0.304447 -0.1517,0.5842 -0.2286,0.735894 -0.127,0.07726 -2.3622,-1.015647 -2.61585,-1.320094 -0.15275,-0.203906 0.3048,-1.2446 0.5073,-1.219553 0.12805,0 0.66145,0.1778 1.1437,0.431094 m 21.89445,0.07726 c 0.2039,0.202494 0.3556,0.609247 0.4064,0.837847 0.0512,0.3556 0.1531,0.686153 0.1778,0.915105 0.10195,0.735895 -0.50694,5.359051 -0.86254,6.248051 -0.1778,0.50694 -0.53481,0.9906 -0.83926,1.19344 -0.27834,0.1778 -0.5842,0.50836 -0.66005,0.68616 -0.127,0.2286 -0.3556,0.4064 -0.55809,0.4064 -0.27976,0 -0.30621,-0.0769 -0.12841,-0.25471 0.1778,-0.22895 0.22895,-0.4826 0.0265,-0.4826 -0.0265,0 -0.4826,0.33091 -0.91511,0.73731 -0.889,0.81315 -1.37125,1.01564 -1.04034,0.40675 0.1778,-0.5334 -0.15311,-0.63535 -0.86431,-0.27975 -0.635,0.30444 -1.1437,0.1778 -0.86395,-0.20391 0.3556,-0.32949 0.22895,-1.0668 -0.15134,-1.0668 -0.38206,0 -0.43286,-0.27975 -0.0773,-0.5842 0.12665,-0.127 0.2547,-0.38029 0.2547,-0.55809 0,-0.38171 0.1778,-0.55951 1.651,-1.32151 0.81316,-0.43145 1.37125,-0.55809 1.8288,-0.5334 0.66005,0.0773 0.68475,0.0773 0.4064,0.38171 -0.1531,0.15169 -0.50835,0.30444 -0.7881,0.30444 -0.5581,0 -2.43805,0.9137 -2.43805,1.21956 0,0.0759 0.1778,0.0511 0.43145,-0.0508 0.7373,-0.33091 0.78846,-0.20391 0.1531,0.48224 -0.58455,0.63536 -0.6865,1.06645 -0.1531,1.06645 0.127,0 0.3817,-0.30445 0.5595,-0.60889 0.30445,-0.68616 0.5073,-0.73731 0.5073,-0.10196 0,0.25365 0.0508,0.50836 0.17745,0.55951 0.20425,0.22719 0.6865,-0.43286 0.6865,-0.99095 0,-0.48225 0.1778,-0.96591 0.45755,-0.96591 0.10196,0 0.2025,0.27975 0.30445,0.66146 0.10195,0.32914 0.25365,0.66005 0.3556,0.66005 0.25365,0 0.83785,-0.9398 0.83785,-1.42205 0,-0.27975 0.10195,-0.66146 0.33055,-0.83926 0.3048,-0.25365 0.3556,-0.7112 0.50871,-2.235199 0.10054,-1.015647 0.12664,-2.157942 0.0494,-2.5908 -0.1778,-1.142294 -0.48225,-1.269294 -2.8441,-1.066447 -1.0929,0.101953 -2.1844,0.2286 -2.46415,0.381706 -0.2286,0.100541 -0.83785,0.608894 -1.29505,1.117599 l -0.81315,0.862542 0.12665,-0.684742 c 0.0773,-0.3556 0.1778,-0.864305 0.22895,-1.042105 0.0508,-0.330553 -0.0251,-0.4572 -0.3295,-0.533047 -0.27975,-0.153106 -0.48224,0 -1.06644,0.735894 -0.762,1.041753 -1.09291,1.041753 -0.55951,0.0508 0.88865,-1.548694 0.9398,-1.599847 2.76825,-1.599847 0.8643,0 2.66806,-0.0508 3.8615,-0.153106 2.15936,-0.151341 2.2599,-0.126647 2.6155,0.255059 m -16.89065,2.8194 c 0.66005,1.777647 0.91475,2.793293 0.4064,1.651 -0.25365,-0.381706 -0.63535,-1.1176 -0.96449,-1.550459 -0.58456,-0.837847 -0.71261,-1.573388 -0.30586,-1.573388 0.15275,0 0.48366,0.710847 0.86395,1.472847 m 15.1638,0.735889 c 0.40676,0.482247 0.3048,0.660047 -0.45755,0.635353 -0.55809,-0.02469 -1.39735,0.279753 -4.1656,1.701801 -5.15549,2.5908 -4.72405,2.28635 -5.61305,4.34375 -1.01529,2.69276 -1.62595,3.5814 -2.48849,4.19065 -0.45755,0.38171 -0.81315,0.71085 -0.81315,0.8128 0,0.15311 0.3556,0.45755 0.81315,0.78705 0.81174,0.50835 0.83785,0.50835 2.18405,0.33055 0.91369,-0.0759 1.52435,-0.0759 1.72684,0 1.01565,0.63535 3.50556,4.77485 3.9617,6.75675 0.12841,0.4311 0.53481,1.2954 0.9151,1.9043 0.4064,0.61066 0.66005,1.16875 0.60925,1.24424 -0.1778,0.3556 -0.60925,0.12842 -1.19345,-0.55809 -0.3309,-0.38171 -0.60924,-0.635 -0.63535,-0.50835 -0.15169,0.63535 -0.81315,1.55046 -1.37125,1.95686 -0.30444,0.22718 -0.66004,0.58278 -0.7373,0.83784 -0.10054,0.25365 -0.22719,0.27975 -0.35525,0.12665 -0.3048,-0.3556 -0.27834,-0.73731 0.12806,-1.24425 0.45614,-0.5842 0.10054,-0.61066 -0.43286,-0.0511 -0.30445,0.33091 -0.38029,0.33091 -0.5842,0.10195 -0.20249,-0.3817 0.48225,-0.9906 1.39735,-1.24566 1.77765,-0.5334 1.93076,-0.88864 1.4732,-2.61549 -0.3556,-1.44815 -0.7112,-1.8796 -1.6263,-2.25989 -0.9398,-0.35702 -3.27554,-0.33091 -3.63079,0.0247 -0.33091,0.40675 -1.01706,1.54905 -1.01706,1.67569 0,0.0773 0.17745,0.15311 0.55951,0.25506 0.2794,0.0758 0.8128,0.30445 1.04175,0.5842 0.53305,0.5334 0.83785,1.6757 0.48225,2.0066 -0.10196,0.17745 -0.1778,0.17745 -0.25506,0 -0.0494,-0.1778 -0.30445,-0.5087 -0.48225,-0.78846 -0.5842,-0.76059 -1.2954,-0.83784 -3.937,-0.50694 -3.937,0.50694 -4.77485,0.9137 -5.0038,2.13325 -0.0508,0.3817 -0.1778,0.86395 -0.25364,1.01529 -0.10196,0.33091 -0.0755,0.3556 -0.55916,-1.26894 -0.127,-0.889 -0.127,-0.99095 0.0261,-1.39735 0.43109,-0.63535 1.24425,-0.9398 2.76825,-1.0668 1.6263,-0.12665 3.02224,-0.53305 3.91089,-0.9906 0.7112,-0.45755 1.80411,-1.8288 1.80411,-2.38831 0,-0.35524 -0.78705,-0.9398 -1.72685,-1.01564 -0.9398,-0.17745 -0.96591,-0.7867 -0.20391,-1.65065 0.9398,-0.99095 0.5842,-1.14265 -2.08209,-1.0668 -1.4732,0 -2.38831,-0.0261 -2.61691,-0.2286 -0.4826,-0.22895 -1.2954,-1.09291 -1.2954,-1.3201 0,-0.43285 1.06645,-0.6865 2.5908,-0.6865 h 1.57515 l -0.4826,-0.55951 c -0.48225,-0.45614 -0.50835,-0.53304 -0.43109,-1.29504 0.0247,-0.40676 0.12664,-0.8629 0.25329,-0.98955 0.33091,-0.35701 1.0668,-0.1778 2.5908,0.6089 0.9645,0.5334 1.2446,0.63535 1.37125,0.40675 0.0508,-0.10195 0.66146,-1.2707 1.3215,-2.46415 l 1.19345,-2.286 1.49931,-0.762 c 0.83784,-0.3803 1.92934,-0.889 2.46239,-1.14265 0.71261,-0.2794 1.04175,-0.508353 1.1176,-0.788106 0.0261,-0.202494 0.0773,-0.608894 0.1531,-0.888647 0.1778,-0.508706 0.25365,-0.558095 1.1684,-0.558095 0.4826,0 0.99095,0.126648 1.0668,0.227189 0.10195,0.128059 0.38171,0.128059 0.9398,-0.07585 0.83785,-0.3556 1.01565,-0.3556 1.3462,0 m -6.83225,0.508706 c 0,0.837847 -0.43285,1.497894 -0.9151,1.422047 -0.1778,-0.101953 -0.88865,0.101953 -1.65065,0.355596 l -1.34655,0.55951 -1.3462,-0.73731 -1.37125,-0.735891 0.27975,-0.508705 c 0.43145,-0.762 0.7112,-0.736953 2.1082,0.05115 l 1.16735,0.635352 1.3215,-0.863952 c 0.7359,-0.431448 1.44851,-0.837848 1.54905,-0.837848 0.10195,0 0.2039,0.329142 0.2039,0.660048 m -14.98635,0.660047 c 1.34655,0.786694 2.08245,1.499309 2.64195,2.488489 1.3709,2.51496 0.0759,4.57236 -3.63255,5.91891 -0.63535,0.2286 -1.24425,0.5842 -1.4732,0.762 -0.33055,0.33055 -0.27975,0.81315 0.33091,4.6482 0.25329,1.47285 0.50694,3.42829 0.63359,4.3434 0.25505,2.48885 0.5087,3.81035 1.57515,6.14609 0.6865,1.7018 1.0929,2.33716 2.0574,3.48086 1.21955,1.3201 1.2954,1.4471 2.1844,1.6249 1.1176,0.2547 1.3723,0.5595 0.48366,0.762 l -0.5842,0.12664 0.78669,1.06821 c 0.40605,0.6089 0.81315,1.1176 0.889,1.1423 0.0261,0.0508 0.10195,0 0.17745,-0.15311 0.3556,-0.32914 1.2446,-0.20249 2.0066,0.38171 0.48225,0.3048 0.7881,0.60925 0.7881,0.73589 0,0.27976 -0.45755,0.22896 -0.9398,-0.10054 -0.6103,-0.33055 -1.21955,-0.33055 -1.21955,0 0,0.2025 0.127,0.66005 0.3556,1.01565 0.25365,0.68615 0.30445,0.7373 0.91511,0.66005 0.50694,-0.0759 0.66004,0.0261 1.24424,0.5595 0.7359,0.86254 1.16876,1.0915 2.0574,1.1423 0.40676,0.0512 0.78705,0.1778 0.9398,0.3556 0.127,0.12699 0.25365,1.06679 0.3295,2.71744 0.0512,2.43911 0.0512,2.56611 0.7373,4.2926 0.3803,0.96626 0.9645,2.28635 1.26895,2.87055 0.43285,0.91511 0.63535,1.04176 0.96625,0.99096 0.66005,-0.0512 1.77765,0.33055 2.2599,0.7881 0.3817,0.43145 0.48225,0.9137 0.0773,0.76059 -0.15311,-0.10054 -0.30586,0.0773 -0.43286,0.50871 -0.2286,0.762 -0.5842,0.68615 -0.73589,-0.10196 -0.12665,-0.7112 -0.43251,-0.86289 -0.71085,-0.3556 -0.0773,0.15276 -0.22895,0.25471 -0.38171,0.1778 -0.3556,-0.127 -2.51495,-3.37784 -2.97109,-4.34375 -0.63535,-1.42205 -0.9398,-3.50414 -0.9398,-5.84129 v -2.26025 l -0.48401,0.127 c -0.45614,0.0508 -0.98919,-0.127 -1.7773,-0.40675 -1.3977,-0.6089 -1.8041,-0.55951 -1.6263,0.27975 0.0511,0.3556 0.17921,1.34655 0.2286,2.3622 0.20426,1.82845 0.48401,2.41265 0.889,2.00625 0.1531,-0.12665 0.35701,-0.5334 0.3817,-0.99096 0.0247,-0.4064 0.15311,-0.762 0.25365,-0.762 0.20391,0 0.10195,2.31105 -0.12665,2.92171 -0.0512,0.12665 0.4064,1.09114 1.1684,2.4638 0.68616,1.24425 1.62596,3.07305 2.0574,4.1148 0.68616,1.59985 0.9398,2.0066 1.39736,2.25989 0.88864,0.48225 0.7112,1.16876 -0.1778,1.16876 -0.63536,0 -1.21956,-0.86396 -2.71745,-4.19065 -0.89077,-1.8288 -1.85491,-3.78566 -2.08351,-4.4704 -0.3556,-0.5842 -0.76235,-1.2954 -0.96484,-1.57515 -0.66146,-0.81316 -0.73731,-1.24425 -0.73731,-3.048 -0.0247,-3.1489 -0.73589,-5.07965 -3.32634,-8.1788 -2.87055,-3.42865 -3.30376,-4.064 -4.31906,-6.24805 -1.01529,-2.3883 -1.59985,-4.4457 -1.85314,-6.98535 -0.27975,-1.80375 -0.83926,-5.25709 -1.42381,-8.53405 -0.278343,-1.16875 -0.431095,-2.49026 -0.48225,-2.9725 -0.101952,-0.889 -0.101952,-0.889 0.5334,-1.2954 1.37266,-0.81316 2.8194,-0.2025 2.8194,1.1437 v 0.60925 l 0.78846,-0.55809 c 1.95509,-1.21956 2.51354,-2.59222 1.44674,-3.937 -0.20249,-0.3556 -0.5842,-0.66146 -0.7112,-0.66146 -0.1023,0.0261 -2.41265,-0.9137 -2.6924,-1.0668 -0.0512,-0.07585 0.35525,-1.370896 0.50835,-1.497896 0.10196,-0.0508 0.68616,0.202494 1.3462,0.609247 m 7.0104,12.446219 c -0.0511,0.1517 -0.27976,0.25365 -0.43145,0.27976 -1.55046,0.20249 -6.27415,1.2954 -6.47665,1.52258 -0.43286,0.40676 -0.48401,0.30622 -0.45755,-0.71084 l 0.0247,-0.889 0.43286,0.30444 c 0.40499,0.38206 0.45579,0.38206 1.49789,0 0.55951,-0.17744 1.67711,-0.35524 2.36185,-0.43109 0.68615,-0.0512 1.62595,-0.1778 2.13466,-0.25365 0.78669,-0.0773 0.98883,-0.0508 0.91369,0.1778 m 14.4018,0.68474 c 0.15275,0.33091 0.27975,0.38171 0.45755,0.25506 0.15134,-0.0508 0.5581,-0.25506 0.8128,-0.30444 0.4826,-0.10196 0.5334,-0.0773 0.5334,0.32914 0,0.7112 0.5073,1.2707 1.01565,1.2707 0.68615,0 0.83785,-0.2039 -1.09291,2.2352 -0.60889,0.81316 -1.29504,1.75296 -1.54869,2.2091 -0.63535,1.06786 -1.72685,3.5814 -2.0574,4.77625 -0.43145,1.65065 -1.95545,3.50415 -2.8194,3.50415 -0.68651,0 -2.08245,-2.18405 -2.08245,-3.30165 0,-0.5842 0.45614,-0.86395 1.19345,-0.86395 0.30445,0 0.5842,-0.20285 0.91511,-0.7359 0.30444,-0.3817 0.5334,-0.66004 0.60889,-0.58455 0.20285,0.22895 -0.50835,1.4224 -1.09255,1.85349 -0.7112,0.5334 -0.762,0.91511 -0.3048,1.85491 0.76235,1.39735 1.6002,1.14229 0.99095,-0.25365 -0.27975,-0.6103 -0.33091,-0.86395 -0.20249,-1.04175 0.25364,-0.27975 0.5334,-0.0261 0.88864,0.8643 l 0.25365,0.71085 0.3556,-0.50835 c 0.2286,-0.3048 0.43145,-1.09291 0.63535,-1.77765 0.1778,-0.7112 0.45756,-1.651 0.71085,-2.2352 0.48225,-1.0929 2.1844,-3.98815 2.84445,-4.92795 l 0.5595,-0.68615 -0.5595,0.12806 c -0.5842,0.12664 -0.66005,0 -0.27834,-0.55951 0.27834,-0.45755 0.3556,-1.21955 0.10054,-1.21955 -0.0759,0 -0.3295,0.25506 -0.48225,0.5595 -0.20285,0.3295 -0.5334,0.66005 -0.66005,0.7867 -0.3556,0.1778 -0.3817,0.1531 -0.27975,-0.3803 0.12665,-0.71084 -0.1778,-0.7881 -0.38029,-0.15275 -0.1778,0.4064 -0.30622,0.43109 -0.66182,0.38171 -0.35524,-0.10196 -0.53304,-0.0265 -0.5842,0.15134 -0.0494,0.1531 -0.12664,0.63535 -0.25329,1.16875 -0.127,0.45755 -0.3048,0.88865 -0.38065,0.88865 -0.0769,0 -0.0769,-0.5842 -0.0769,-1.3201 0,-1.04175 0.0261,-1.3723 0.4064,-2.03235 0.43286,-0.83785 0.7112,-1.0668 0.7112,-0.5334 0,0.15275 0.0261,0.25365 0.12806,0.25365 0.1778,0 1.19345,-0.78705 1.19345,-0.94016 0,-0.30444 0.30444,-0.20249 0.48224,0.1778 m -16.15475,0.81316 c 0,0.0773 -0.38029,0.27975 -0.762,0.43286 -0.43144,0.12664 -1.2446,0.71084 -1.90464,1.24424 -1.2954,1.01565 -2.1082,1.2693 -2.1082,0.60925 0,-0.22895 0.35524,-0.55809 1.44815,-1.04211 1.8796,-0.96449 3.32669,-1.47284 3.32669,-1.24424 m 9.55111,4.6482 c 0,0.2286 -1.14371,2.1082 -1.55011,2.56575 l -0.43144,0.40675 v -0.61066 c 0,-0.71084 0.60889,-1.77764 1.32009,-2.20909 0.48366,-0.27975 0.66146,-0.35525 0.66146,-0.15275"
       style="fill:#ffffff;fill-opacity:1;fill-rule:nonzero;stroke:none;stroke-width:0.352777"
       id="path1557" />
    <g
       id="g1565"
       transform="matrix(0.62150014,0,0,0.62150014,86.475204,-54.105147)">
      <circle
         style="fill:none;stroke:#ffffff;stroke-width:0.6;stroke-miterlimit:4;stroke-dasharray:none;stop-color:#000000"
         id="circle1559"
         cx="17.361992"
         cy="185.10471"
         r="2.6150849" />
      <path
         style="fill:#ffffff;stroke:#ffffff;stroke-width:0.6;stroke-linecap:butt;stroke-linejoin:miter;stroke-miterlimit:4;stroke-dasharray:none;stroke-opacity:1"
         d="m 17.361991,189.51709 c 0,-8.86401 0,-8.82477 0,-8.82477"
         id="path1561" />
      <path
         style="fill:#ffffff;stroke:#ffffff;stroke-width:0.6;stroke-linecap:butt;stroke-linejoin:miter;stroke-miterlimit:4;stroke-dasharray:none;stroke-opacity:1"
         d="m 21.774378,185.1047 c -8.86401,0 -8.82477,0 -8.82477,0"
         id="path1563" />
    </g>
    <g
       id="g1573"
       transform="matrix(0.62150014,0,0,0.62150014,126.96654,-54.506051)">
      <circle
         style="fill:none;stroke:#ffffff;stroke-width:0.6;stroke-miterlimit:4;stroke-dasharray:none;stop-color:#000000"
         id="circle1567"
         cx="17.361992"
         cy="185.10471"
         r="2.6150849" />
      <path
         style="fill:#ffffff;stroke:#ffffff;stroke-width:0.6;stroke-linecap:butt;stroke-linejoin:miter;stroke-miterlimit:4;stroke-dasharray:none;stroke-opacity:1"
         d="m 17.361991,189.51709 c 0,-8.86401 0,-8.82477 0,-8.82477"
         id="path1569" />
      <path
         style="fill:#ffffff;stroke:#ffffff;stroke-width:0.6;stroke-linecap:butt;stroke-linejoin:miter;stroke-miterlimit:4;stroke-dasharray:none;stroke-opacity:1"
         d="m 21.774378,185.1047 c -8.86401,0 -8.82477,0 -8.82477,0"
         id="path1571" />
    </g>
    <g
       id="g1581"
       transform="matrix(0.62150014,0,0,0.62150014,126.56945,56.936568)">
      <circle
         style="fill:none;stroke:#ffffff;stroke-width:0.6;stroke-miterlimit:4;stroke-dasharray:none;stop-color:#000000"
         id="circle1575"
         cx="17.361992"
         cy="185.10471"
         r="2.6150849" />
      <path
         style="fill:#ffffff;stroke:#ffffff;stroke-width:0.6;stroke-linecap:butt;stroke-linejoin:miter;stroke-miterlimit:4;stroke-dasharray:none;stroke-opacity:1"
         d="m 17.361991,189.51709 c 0,-8.86401 0,-8.82477 0,-8.82477"
         id="path1577" />
      <path
         style="fill:#ffffff;stroke:#ffffff;stroke-width:0.6;stroke-linecap:butt;stroke-linejoin:miter;stroke-miterlimit:4;stroke-dasharray:none;stroke-opacity:1"
         d="m 21.774378,185.1047 c -8.86401,0 -8.82477,0 -8.82477,0"
         id="path1579" />
    </g>
    <g
       id="g1589"
       transform="matrix(0.62150014,0,0,0.62150014,86.503975,55.802639)">
      <circle
         style="fill:none;stroke:#ffffff;stroke-width:0.6;stroke-miterlimit:4;stroke-dasharray:none;stop-color:#000000"
         id="circle1583"
         cx="17.361992"
         cy="185.10471"
         r="2.6150849" />
      <path
         style="fill:#ffffff;stroke:#ffffff;stroke-width:0.6;stroke-linecap:butt;stroke-linejoin:miter;stroke-miterlimit:4;stroke-dasharray:none;stroke-opacity:1"
         d="m 17.361991,189.51709 c 0,-8.86401 0,-8.82477 0,-8.82477"
         id="path1585" />
      <path
         style="fill:#ffffff;stroke:#ffffff;stroke-width:0.6;stroke-linecap:butt;stroke-linejoin:miter;stroke-miterlimit:4;stroke-dasharray:none;stroke-opacity:1"
         d="m 21.774378,185.1047 c -8.86401,0 -8.82477,0 -8.82477,0"
         id="path1587" />
    </g>
    <text
       xml:space="preserve"
       style="font-size:2.85502px;line-height:1.25;font-family:'8BIT WONDER';-inkscape-font-specification:'8BIT WONDER';stroke-width:0.178438"
       x="-14.626294"
       y="-241.73418"
       id="text1593"
       transform="matrix(-0.50243285,0.91643137,-0.7336206,-0.65220072,0,0)"><tspan
         sodipodi:role="line"
         id="tspan1591"
         x="-14.626294"
         y="-241.73418"
         style="font-style:normal;font-variant:normal;font-weight:normal;font-stretch:normal;font-family:'Nikkyou Sans';-inkscape-font-specification:'Nikkyou Sans';stroke-width:0.178438">SQUARESOLID</tspan></text>
    <text
       xml:space="preserve"
       style="font-size:2.74887px;line-height:1.25;font-family:'8BIT WONDER';-inkscape-font-specification:'8BIT WONDER';stroke-width:0.171804"
       id="text1601"
       x="-0.50167686"
       y="0.4657315"><textPath
         xlink:href="#path1603"
         id="textPath1605"><tspan
           id="tspan1599"
           style="font-style:normal;font-variant:normal;font-weight:normal;font-stretch:normal;font-family:'Nikkyou Sans';-inkscape-font-specification:'Nikkyou Sans';stroke-width:0.171804">Panthera Tigris Sondaica</tspan></textPath></text>
    <text
       xml:space="preserve"
       style="font-size:2.85502px;line-height:1.25;font-family:'8BIT WONDER';-inkscape-font-specification:'8BIT WONDER';fill:#ffffff;stroke-width:0.178438"
       x="174.3217"
       y="29.485336"
       id="text1610"
       transform="matrix(0.50243285,0.91643137,0.7336206,-0.65220072,0,0)"><tspan
         sodipodi:role="line"
         id="tspan1608"
         x="174.3217"
         y="29.485336"
         style="font-style:normal;font-variant:normal;font-weight:normal;font-stretch:normal;font-family:'Nikkyou Sans';-inkscape-font-specification:'Nikkyou Sans';fill:#ffffff;stroke-width:0.178438">SQUARESOLID</tspan></text>
    <text
       xml:space="preserve"
       style="font-size:2.74887px;line-height:1.25;font-family:'8BIT WONDER';-inkscape-font-specification:'8BIT WONDER';fill:#ffffff;stroke-width:0.171804"
       id="text1616"
       x="-0.50167686"
       y="0.4657315"
       transform="matrix(-1,0,0,1,293.90591,-3.7316757)"><textPath
         xlink:href="#path1603"
         id="textPath1614"><tspan
           id="tspan1612"
           style="font-style:normal;font-variant:normal;font-weight:normal;font-stretch:normal;font-family:'Nikkyou Sans';-inkscape-font-specification:'Nikkyou Sans';fill:#ffffff;stroke-width:0.171804">Panthera Tigris Sondaica</tspan></textPath></text>
    <rect
       style="fill:#000000;stroke:none;stroke-width:0.912605;stop-color:#000000"
       id="rect1618"
       width="50"
       height="120"
       x="20.363119"
       y="56.016479" />
    <path
       d="m 53.045625,74.878477 c 0.25329,0.227189 0.9398,0.660047 1.59985,1.040342 0.66145,0.381705 1.6771,1.168752 2.2352,1.752953 0.6103,0.559505 1.7018,1.499305 2.4638,2.057399 1.59984,1.1176 1.77764,1.599848 1.2954,2.666648 -0.1778,0.381705 -0.5073,0.838905 -0.68475,1.041752 l -0.3817,0.4064 v -0.431447 c 0,-0.355247 -0.10231,-0.4064 -0.50871,-0.355247 -0.78669,0.100542 -0.73589,-0.406753 0.0511,-0.686506 1.21956,-0.381705 1.21956,-0.837847 0,-1.726494 -0.43145,-0.306211 -1.14265,-0.915106 -1.57374,-1.372658 l -0.81315,-0.888648 -0.78811,0.253295 c -1.14265,0.279753 -1.21814,0.279753 -1.2954,0.05115 0,-0.07585 0.20391,-0.304447 0.55951,-0.507294 0.30444,-0.203906 0.5842,-0.406401 0.5842,-0.483659 0,-0.380294 -0.4064,-0.380294 -1.14371,0.101953 -0.48225,0.279753 -0.91369,0.457553 -1.01565,0.457553 -0.30444,0 -0.1778,-0.482248 0.3556,-0.9906 0.27976,-0.304801 0.45756,-0.558095 0.4064,-0.660401 -0.20249,-0.2286 -0.99095,0.4826 -1.49789,1.219553 -0.4064,0.787047 -1.0929,1.218495 -1.3462,0.989542 -0.0512,-0.04939 0.30445,-0.608894 0.78669,-1.2954 0.45756,-0.608895 0.81316,-1.218142 0.73731,-1.2954 -0.0512,-0.02469 -0.48366,-0.0755 -1.01706,-0.0755 -0.50694,0.02611 -0.91369,-0.05115 -0.99095,-0.151694 -0.12665,-0.228953 0.86431,-1.245658 1.2707,-1.372658 0.15311,-0.07585 0.45756,0.07585 0.7112,0.255058 m -4.6235,2.284589 c -0.25365,0.508706 -0.68474,1.372658 -1.01565,1.879953 -1.1684,1.727905 -1.2954,2.8702 -0.55809,4.598458 0.5334,1.040342 0.5334,1.1176 0.1778,1.1176 -0.30445,0 -1.90571,-2.032706 -2.2352,-2.9972 -0.25506,-0.661458 -0.30445,-1.4732 -0.0508,-1.626306 0.0508,-0.07585 0.1778,0.253648 0.35525,0.686506 0.3556,0.888647 0.58455,0.862542 0.60924,0 0,-0.153106 0.3556,-0.9398 0.66005,-1.626306 0.4064,-0.737305 0.66146,-1.397352 0.66146,-1.523999 0,-0.304448 -1.09291,-0.07585 -2.08351,0.253647 -0.5842,0.254705 -0.66004,0.330553 -0.91369,1.397352 -0.25506,0.837848 -0.30445,1.472848 -0.25506,2.310695 0.10195,1.270705 -0.0494,1.499305 -0.48225,0.712611 -0.20249,-0.330906 -0.32949,-0.915106 -0.32949,-1.8796 0,-0.788458 -0.0769,-1.499306 -0.12806,-1.550458 -0.0247,-0.101953 -0.60889,0.127 -1.21814,0.482247 -0.9398,0.508705 -1.09291,0.737305 -1.42205,1.626305 -0.5595,1.270353 -0.66146,3.021895 -0.45755,4.825647 0.10054,0.788459 0.1778,1.4224 0.12665,1.499306 -0.0508,0.04974 -0.33056,-0.330553 -0.5842,-0.914753 l -0.50836,-0.990953 -0.81315,0.127 c -0.40499,0.07691 -1.04034,0.254706 -1.32009,0.381706 l -0.5581,0.329142 0.3803,0.432858 c 0.25364,0.253294 0.66004,0.635 1.01564,0.888647 0.50836,0.482247 0.50836,0.5334 0.30445,1.142647 -0.12665,0.2794 -0.22719,0.533048 -0.25365,0.533048 -0.0508,0 -0.71084,-0.253648 -1.3977,-0.558095 -1.03999,-0.482247 -1.2947,-0.737305 -1.4217,-1.1176 l -0.0759,-0.431094 -0.45755,0.533047 c -0.30445,0.3048 -0.83785,1.320094 -1.24425,2.3622 -0.50835,0.964494 -1.0929,2.259894 -1.3215,2.793294 -1.3201,2.412647 -2.18405,4.902906 -2.6155,7.44255 -0.12664,0.86396 -0.22895,1.651 -0.22895,1.6757 0.0759,0.0512 0.25365,-0.25365 0.38206,-0.58279 0.22719,-0.38171 0.50694,-0.66146 0.55809,-0.66146 0.762,0 3.0727,1.3462 2.8702,1.67711 -0.0508,0.0759 0.1517,0.27975 0.37995,0.43109 0.15345,0.22895 0.4071,0.43145 0.4071,0.63535 0,0.27976 -0.0512,0.27976 -0.43145,-0.0247 -0.33055,-0.2039 -0.5334,-0.25505 -0.63535,-0.12805 -0.10195,0.12805 -0.53305,0.0508 -1.14229,-0.22896 -1.21956,-0.63394 -1.49931,-0.60889 -2.4638,0.15311 l -0.837852,0.71085 v -1.1423 c 0,-2.6677 1.853492,-8.560149 3.555292,-11.304054 0.9398,-1.497895 1.44816,-2.666295 1.44816,-3.5306 0.0251,-1.777648 0.63394,-2.868789 2.64195,-4.570942 0.68474,-0.559505 1.44674,-1.372305 1.75119,-1.779058 0.33091,-0.355247 1.01706,-1.015647 1.651,-1.395942 0.63535,-0.432505 1.72791,-1.143705 2.43911,-1.601258 0.762,-0.482247 1.67569,-1.015647 2.15935,-1.244247 0.40675,-0.100542 1.37125,-0.456142 2.0574,-0.735895 0.78705,-0.304447 1.651,-0.432858 2.31105,-0.432858 h 0.96449 l -0.4064,0.9398 m 3.12561,-0.304455 c 0.2025,0.5334 -0.0773,0.863953 -0.8643,0.863953 -0.9645,0 -0.9906,0.07585 -0.6089,1.295399 0.2025,0.735895 0.2025,0.787048 -0.0261,0.787048 -0.22895,0 -0.45755,-0.329495 -0.6604,-1.040342 -0.50835,-1.448505 -0.48224,-1.804106 0.0512,-1.981906 0.66005,-0.330552 1.98014,-0.279752 2.10855,0.07585 m 5.1301,3.7084 c 0.8382,1.041752 0.8643,1.321505 0.1023,0.965905 -0.7112,-0.330553 -1.8041,-0.3556 -2.54141,-0.07726 -0.30444,0.128411 -0.96449,0.255059 -1.44674,0.381706 -0.43286,0.05115 -0.762,0.1778 -0.762,0.202847 0,0.0508 0.2025,0.432505 0.5842,0.839258 0.7112,0.862542 0.63535,1.1176 -0.2286,0.684742 -0.3556,-0.2286 -0.81315,-0.7112 -1.16875,-1.371247 -0.762,-1.448153 -0.86395,-1.726495 -0.45755,-1.548695 0.1531,0.07585 0.762,0.151342 1.3215,0.202494 0.9137,0.152753 1.16875,0.0508 2.33574,-0.5334 0.71261,-0.431094 1.34656,-0.686152 1.39736,-0.686152 0.0512,0 0.43285,0.4064 0.86395,0.9398 m -15.06185,0.5842 c 0.0512,0.330905 0.12665,1.1176 0.12665,1.7018 0,1.550458 0.43145,3.734505 0.91369,4.648199 0.45756,0.9398 1.4732,2.032706 2.28636,2.566106 l 0.66145,0.4064 -0.9151,-0.07726 c -0.7867,-0.07585 -1.1423,-0.227189 -1.75295,-0.684742 -0.3803,-0.381706 -0.762,-0.559506 -0.762,-0.5334 -0.1517,0.100542 0.27975,2.539647 0.63535,3.275541 0.27975,0.762 0.43145,0.990953 1.4732,1.499306 0.63535,0.3556 1.21955,0.686506 1.27035,0.762 0.10054,0.101953 -0.0769,1.168753 -0.2039,1.346553 -0.1778,0.202494 -3.07305,-1.448506 -3.30165,-1.8796 -0.25365,-0.279753 -0.4064,-0.990953 -0.48225,-2.261306 -0.0511,-0.964847 -0.20426,-2.691341 -0.27975,-3.759552 -0.3048,-2.259895 -0.20285,-6.754989 0.10195,-7.339189 0.12665,-0.279753 0.12665,-0.228953 0.2286,0.329142 m 8.71185,1.346552 c 0,1.1176 0.3556,1.548695 1.39735,2.083506 0.4826,0.202494 0.96485,0.456142 0.96485,0.558094 0,0.279753 -2.84445,0.101953 -3.09915,-0.202494 -0.1517,-0.153104 0.12805,-2.641951 0.35524,-3.074456 0.1778,-0.380295 0.38171,-0.100542 0.38171,0.635352 m 6.14609,1.270353 c 0.15311,0.100542 0.27976,0.3556 0.27976,0.482247 0,0.253648 -0.12665,0.3048 -0.71085,0.202848 -0.66005,-0.127 -0.7359,-0.04974 -0.9137,0.305858 -0.17921,0.304447 -0.1531,0.506942 0.1778,0.786694 0.25365,0.3556 0.30445,0.3556 0.7359,0.07585 0.2286,-0.1778 0.45755,-0.304447 0.53305,-0.253647 0.127,0.1778 0.0512,1.853495 -0.12665,2.082447 -0.0759,0.152753 -0.48225,0.457553 -0.83785,0.635 -0.762,0.3556 -0.83926,0.330906 -1.4993,-0.9398 -0.30445,-0.5842 -0.30445,-0.735894 -0.10055,-0.837847 0.1517,-0.0508 0.45615,0.07585 0.7112,0.330906 0.2533,0.1778 0.5842,0.380294 0.66005,0.380294 0.35525,0 0.10195,-0.4064 -0.43286,-0.762 -0.43144,-0.330905 -0.48224,-0.482247 -0.48224,-1.142294 0,-0.5334 0.0773,-0.839258 0.3556,-1.042106 0.53304,-0.330552 1.2954,-0.508352 1.65064,-0.304447 m -7.54309,1.0668 c 0.7881,1.8796 2.0574,2.386542 3.2011,1.397353 1.19345,-0.966258 1.2954,-0.610659 0.3803,0.811389 -0.5581,0.9398 -0.63535,0.966258 -1.24425,0.864305 -2.1844,-0.380647 -2.9464,-1.1176 -3.07305,-2.793294 -0.0773,-1.4732 0.2025,-1.575153 0.7359,-0.279753 m 10.4648,0.431092 c 0.73695,2.210505 0.60889,2.768599 -0.3048,1.372658 -0.50835,-0.863953 -0.50835,-0.839259 -0.73731,0.608894 -0.17744,1.0668 -0.43109,0.864306 -0.43109,-0.330553 v -1.142286 l -0.25365,0.608894 c -0.3556,0.889 -0.6103,0.813153 -0.48225,-0.126647 0.2025,-1.853494 0.2025,-1.8288 0.86255,-2.0066 0.99095,-0.152752 1.01564,-0.126647 1.34655,1.015648 m -13.4112,2.133247 c 1.49789,0.432858 2.0066,1.245658 1.80375,3.125258 -0.2039,1.675694 -0.27975,2.031294 -0.5595,2.031294 -0.12665,0 -0.3803,0.07585 -0.50695,0.153106 -0.53481,0.329141 -0.1778,0.558094 0.66005,0.558094 0.48225,0.02611 0.68474,0.279753 0.2025,0.457553 -0.81316,0.381706 -3.0219,-0.1778 -3.85975,-1.015647 -0.25505,-0.255059 -0.27975,-0.330906 -0.1531,-0.915106 0.1778,-0.457552 0.3309,-0.558094 0.55809,-0.506941 0.15311,0.04939 0.81316,0.202494 1.39736,0.404989 0.5842,0.128058 1.1437,0.179211 1.24424,0.101952 0.0265,-0.07585 0.12841,-0.635352 0.1778,-1.269294 0.12841,-1.245658 0.12841,-1.245658 -0.45614,-1.854553 -0.3817,-0.5334 -0.73695,-0.686505 -1.04175,-0.686505 -0.50835,0 -1.06645,-0.404989 -1.06645,-0.735895 0,-0.101953 1.06645,-0.02611 1.59985,0.151695 m -6.42585,1.830211 c 0.40675,0.533047 0.81315,1.802341 1.3462,3.937 0.5581,1.955447 0.98954,2.539647 2.61585,3.352799 1.1684,0.482248 1.3462,0.684742 1.3462,1.066448 0,0.837847 -0.4064,0.990952 -1.62595,0.482247 -1.2446,-0.508353 -1.6757,-0.863953 -1.6757,-1.422047 0,-0.203906 -0.4826,-1.397353 -1.0668,-2.490259 -0.81315,-1.524 -1.01706,-1.928988 -1.01706,-1.573388 0,0.278341 0.0512,0.710847 0.10196,0.964494 0.10195,0.4064 0.0759,0.508353 -0.0508,0.508353 -0.3556,0 -0.66005,-0.559506 -1.19345,-1.828447 l -0.43145,-1.219553 0.3295,-1.0668 c 0.3817,-1.270353 0.762,-1.550106 1.3215,-0.710847 m -3.5306,0.533047 1.04034,0.685094 -0.0755,0.737306 c -0.0759,0.5842 0,0.863953 0.68616,1.9304 0.50694,0.633941 1.19344,1.624894 1.54904,2.108553 0.73731,0.888647 0.73731,0.913694 0.30445,0.710847 -0.66005,-0.279753 -1.06645,-0.710847 -2.51354,-2.743553 -1.16875,-1.677105 -1.98155,-2.361847 -2.36326,-2.082094 -0.38065,0.253294 -0.15169,0.608894 0.4572,0.811741 0.68651,0.305859 1.14406,0.762 0.96626,1.295047 -0.0511,0.204259 0.15134,0.610659 0.32914,0.990953 0.3048,0.381706 0.63535,1.397353 0.91511,2.134658 0.25364,1.268942 0.66004,2.106789 1.57374,3.783894 l 0.27975,0.4826 -0.5334,-0.45755 c -0.30445,-0.228955 -0.73589,-0.762355 -1.016,-1.091496 -0.71049,-1.092906 -1.14335,-1.575153 -1.37054,-1.575153 -0.55951,0 0.762,2.615499 1.85349,3.683349 l 0.83785,0.96485 0.5842,-0.5334 c 0.25471,-0.38171 0.61031,-0.7373 0.66146,-0.9398 0.12665,-0.30445 0.25365,-0.27975 1.37125,0.33091 0.66004,0.32914 1.26894,0.71084 1.26894,0.83784 0.0511,0.12665 0,0.48225 -0.0759,0.7867 -0.2533,0.63535 -0.8128,0.762 -1.1931,0.2286 -0.0759,-0.12665 -0.45755,-0.3803 -0.7373,-0.53305 -0.5581,-0.22895 -0.63394,-0.22895 -1.01565,0.0508 l -0.3556,0.3048 1.24425,0.762 c 0.7373,0.38171 1.34655,0.762 1.39735,0.8128 0.025,0.0251 -0.10195,0.3048 -0.27975,0.7112 l -0.2533,0.63535 -1.16875,-0.61066 c -0.63535,-0.40498 -1.19345,-0.68474 -1.27071,-0.68474 -0.0755,0 -0.48224,-0.61066 -0.96449,-1.3215 -0.55951,-0.7359 -0.96449,-1.2954 -0.9906,-1.2693 0,0.0247 -0.127,0.6851 -0.22895,1.4732 -0.2025,1.80234 -0.7867,3.3775 -1.62454,4.3173 -0.48366,0.5087 -0.9398,0.762 -1.72826,1.04175 -1.47285,0.40675 -1.59985,0.78705 -0.6089,1.651 0.4064,0.33091 0.7867,0.5842 0.9398,0.5842 0.12665,0 0.2533,0.10195 0.2533,0.20285 0,0.12806 -0.32914,0.15275 -0.9906,0.0508 -0.48225,-0.0759 -1.1176,-0.12665 -1.4471,-0.12665 -0.48366,-0.0251 -0.50835,0 -0.4064,0.86395 0.0759,0.9398 0.45756,3.65725 0.7112,4.2926 0.2025,0.50694 0.68474,0.5334 1.7018,0.0508 0.50694,-0.15275 1.39736,-0.4064 2.13325,-0.50835 0.762,-0.0511 2.1082,-0.27975 2.9972,-0.45755 0.86395,-0.1517 1.62595,-0.3556 1.67711,-0.32914 0.0247,0.0755 -0.20391,0.32914 -0.40676,0.60889 -0.6103,0.5842 -1.27035,0.73731 -2.94604,1.0668 -2.46416,0.43109 -2.92171,0.55915 -3.55671,1.27035 -0.38029,0.3803 -0.68686,0.83785 -0.7112,1.1176 -0.15311,0.5842 0.5842,3.45334 0.9398,4.01285 l 0.4064,0.50835 0.7112,-0.50835 c 0.43145,-0.25365 1.27071,-1.06645 1.93075,-1.75295 1.3462,-1.47285 1.24425,-1.44674 3.70805,-0.45756 1.70215,0.66146 2.08245,0.68651 3.09951,0.0512 0.63394,-0.3556 0.83784,-0.38029 0.83784,-0.20249 0,0.45755 -0.99095,1.59985 -1.75295,2.15935 -0.78705,0.5334 -0.86395,0.5581 -3.65725,0.58279 -3.3528,0 -3.81035,0.1778 -3.81035,1.09291 0,0.33055 0.15311,0.83784 0.25365,1.06644 l 0.33055,0.45756 0.50871,-0.50836 c 0.45614,-0.45614 0.68474,-0.55809 1.16698,-0.5334 0.78846,0.10196 0.89042,0.43286 0.1778,0.5842 -0.45614,0.0759 -1.1176,0.58456 -1.1176,0.889 0,0.0773 0.27976,0.45756 0.78811,0.78811 0.7112,0.60925 0.78705,0.63535 1.34655,0.40675 0.66005,-0.30621 1.82845,-0.12841 2.286,0.3803 l 0.40676,0.27975 -0.63536,0.43109 c -0.68615,0.48225 -0.7112,0.81316 -0.1531,1.34656 0.27975,0.30444 0.4826,0.35524 0.66004,0.2286 0.63536,-0.63536 2.10856,-0.55951 2.54142,0.10195 0.22718,0.22895 0.17744,0.3556 -0.30622,0.762 -0.762,0.68509 -0.762,1.14265 -0.0494,2.08245 l 0.66005,0.762 1.4732,-0.0512 c 1.24425,-0.10196 1.4979,-0.0758 1.7526,0.22895 0.3048,0.3817 0.3048,0.3817 -0.4325,0.48225 -0.78705,0.10195 -1.4732,0.50835 -1.4732,0.86395 0,0.127 0.27975,0.60925 0.61065,1.0668 0.50695,0.762 0.63359,0.83784 0.88865,0.71084 0.4064,-0.27975 1.80234,-0.27975 2.4377,0.0512 0.3048,0.0759 0.61065,0.3556 0.6865,0.50836 0.15134,0.32949 0.0755,0.3556 -0.76235,0.32949 -0.73695,-0.0251 -0.96591,0.0508 -1.21955,0.4064 -0.30445,0.45755 -0.30445,0.45755 0.10195,1.3462 0.45755,0.889 0.45755,0.889 0.91369,0.68651 0.20391,-0.20391 0.66146,-0.25506 0.96626,-0.25506 0.68615,0 1.7018,0.66146 1.85314,1.16875 0.0265,0.25471 -0.12664,0.33055 -0.63359,0.33055 -0.9151,0 -1.52435,0.27976 -1.52435,0.68616 0,0.20284 0.20285,0.73589 0.3803,1.21849 l 0.43144,0.8389 0.86396,-0.10195 c 1.2446,-0.0508 2.10855,0.5087 2.10855,1.34655 0,0.0508 -0.25365,0.0508 -0.5842,0 -0.3048,-0.127 -0.9137,-0.20391 -1.27071,-0.127 l -0.7112,0.0251 0.0773,0.9398 c 0.0511,1.57515 0.22896,1.80375 1.04035,1.80375 0.81315,0 1.4993,0.48225 1.651,1.1423 0.12805,0.3048 0,0.3048 -0.86255,0.22895 -1.2707,-0.10195 -1.59984,0.27975 -1.59984,1.80375 v 1.04034 h 0.55809 c 0.8128,0 1.7265,1.04176 1.21955,1.39736 -0.127,0.0759 -0.3556,0 -0.45755,-0.12665 -0.66005,-0.7112 -1.6263,-0.1778 -1.80375,0.9398 -0.1009,0.5842 -0.1009,0.60925 0.48366,0.60925 0.73589,0 1.32009,0.48365 1.32009,1.11724 0,1.2954 -3.27695,3.81036 -3.78425,2.84586 -0.0508,-0.0773 0.27835,-1.24425 0.66005,-2.69275 0.762,-2.53965 1.14265,-4.826 1.14265,-7.3145 0,-2.64195 -1.6002,-7.2651 -3.2759,-9.80475 -0.48365,-0.63535 -1.27035,-1.8288 -1.82844,-2.66806 -1.44851,-2.23519 -3.96311,-5.05459 -6.88481,-7.79673 -1.82845,-1.651 -2.86915,-2.43911 -3.30165,-2.5908 -1.16875,-0.30445 -1.16875,-0.3556 -0.9137,-0.61066 0.3295,-0.22719 0.25365,-0.30445 -0.22895,-0.88865 -0.71085,-0.78705 -1.42205,-2.5908 -2.18405,-5.53685 -0.7373,-2.9972 -1.77905,-9.57615 -1.7018,-10.26089 0.1517,-0.66146 0.81316,-1.04175 2.33575,-1.2954 0.63535,-0.10195 1.42345,-0.38171 1.65241,-0.55951 1.1176,-0.78704 1.98014,-2.9972 2.18404,-5.28355 0.1778,-1.77765 -0.27975,-2.361847 -2.31245,-3.199694 -0.63359,-0.2286 -1.5487,-0.660048 -2.0574,-0.889 -0.9645,-0.483659 -0.9645,-0.508353 -0.86255,-1.219553 0.0508,-0.304447 0.2025,-0.710847 0.30445,-0.736953 0.25365,-0.1778 2.53965,1.1176 3.25085,1.779058 0.7112,0.762 0.762,0.786695 0.61066,0.126648 -0.43286,-1.143706 -0.10231,-1.905706 0.48224,-1.321506 0.4311,0.508353 0.45756,0.330553 0.1778,-0.837847 -0.4826,-1.371247 -0.96625,-1.930753 -2.28635,-2.5908 -1.1437,-0.559506 -1.1684,-0.737306 -0.81315,-1.854905 0.5334,-1.268942 1.14406,-2.184048 1.4732,-2.184048 0.2039,0.02611 0.86395,0.2286 1.4993,0.610306 m -2.15935,4.570941 c 1.3201,0.610659 1.4979,0.788459 1.19345,1.372659 -0.0759,0.304447 -0.1517,0.5842 -0.2286,0.735894 -0.127,0.07726 -2.3622,-1.015647 -2.61585,-1.320094 -0.15275,-0.203906 0.3048,-1.2446 0.5073,-1.219553 0.12805,0 0.66145,0.1778 1.1437,0.431094 m 21.89445,0.07726 c 0.2039,0.202494 0.3556,0.609247 0.4064,0.837847 0.0512,0.3556 0.1531,0.686153 0.1778,0.915105 0.10195,0.735895 -0.50694,5.359051 -0.86254,6.248051 -0.1778,0.50694 -0.53481,0.9906 -0.83926,1.19344 -0.27834,0.1778 -0.5842,0.50836 -0.66005,0.68616 -0.127,0.2286 -0.3556,0.4064 -0.55809,0.4064 -0.27976,0 -0.30621,-0.0769 -0.12841,-0.25471 0.1778,-0.22895 0.22895,-0.4826 0.0265,-0.4826 -0.0265,0 -0.4826,0.33091 -0.91511,0.73731 -0.889,0.81315 -1.37125,1.01564 -1.04034,0.40675 0.1778,-0.5334 -0.15311,-0.63535 -0.86431,-0.27975 -0.635,0.30444 -1.1437,0.1778 -0.86395,-0.20391 0.3556,-0.32949 0.22895,-1.0668 -0.15134,-1.0668 -0.38206,0 -0.43286,-0.27975 -0.0773,-0.5842 0.12665,-0.127 0.2547,-0.38029 0.2547,-0.55809 0,-0.38171 0.1778,-0.55951 1.651,-1.32151 0.81316,-0.43145 1.37125,-0.55809 1.8288,-0.5334 0.66005,0.0773 0.68475,0.0773 0.4064,0.38171 -0.1531,0.15169 -0.50835,0.30444 -0.7881,0.30444 -0.5581,0 -2.43805,0.9137 -2.43805,1.21956 0,0.0759 0.1778,0.0511 0.43145,-0.0508 0.7373,-0.33091 0.78846,-0.20391 0.1531,0.48224 -0.58455,0.63536 -0.6865,1.06645 -0.1531,1.06645 0.127,0 0.3817,-0.30445 0.5595,-0.60889 0.30445,-0.68616 0.5073,-0.73731 0.5073,-0.10196 0,0.25365 0.0508,0.50836 0.17745,0.55951 0.20425,0.22719 0.6865,-0.43286 0.6865,-0.99095 0,-0.48225 0.1778,-0.96591 0.45755,-0.96591 0.10196,0 0.2025,0.27975 0.30445,0.66146 0.10195,0.32914 0.25365,0.66005 0.3556,0.66005 0.25365,0 0.83785,-0.9398 0.83785,-1.42205 0,-0.27975 0.10195,-0.66146 0.33055,-0.83926 0.3048,-0.25365 0.3556,-0.7112 0.50871,-2.235199 0.10054,-1.015647 0.12664,-2.157942 0.0494,-2.5908 -0.1778,-1.142294 -0.48225,-1.269294 -2.8441,-1.066447 -1.0929,0.101953 -2.1844,0.2286 -2.46415,0.381706 -0.2286,0.100541 -0.83785,0.608894 -1.29505,1.117599 l -0.81315,0.862542 0.12665,-0.684742 c 0.0773,-0.3556 0.1778,-0.864305 0.22895,-1.042105 0.0508,-0.330553 -0.0251,-0.4572 -0.3295,-0.533047 -0.27975,-0.153106 -0.48224,0 -1.06644,0.735894 -0.762,1.041753 -1.09291,1.041753 -0.55951,0.0508 0.88865,-1.548694 0.9398,-1.599847 2.76825,-1.599847 0.8643,0 2.66806,-0.0508 3.8615,-0.153106 2.15936,-0.151341 2.2599,-0.126647 2.6155,0.255059 m -16.89065,2.8194 c 0.66005,1.777647 0.91475,2.793293 0.4064,1.651 -0.25365,-0.381706 -0.63535,-1.1176 -0.96449,-1.550459 -0.58456,-0.837847 -0.71261,-1.573388 -0.30586,-1.573388 0.15275,0 0.48366,0.710847 0.86395,1.472847 m 15.1638,0.735889 c 0.40676,0.482247 0.3048,0.660047 -0.45755,0.635353 -0.55809,-0.02469 -1.39735,0.279753 -4.1656,1.701801 -5.15549,2.5908 -4.72405,2.28635 -5.61305,4.34375 -1.01529,2.69276 -1.62595,3.5814 -2.48849,4.19065 -0.45755,0.38171 -0.81315,0.71085 -0.81315,0.8128 0,0.15311 0.3556,0.45755 0.81315,0.78705 0.81174,0.50835 0.83785,0.50835 2.18405,0.33055 0.91369,-0.0759 1.52435,-0.0759 1.72684,0 1.01565,0.63535 3.50556,4.77485 3.9617,6.75675 0.12841,0.4311 0.53481,1.2954 0.9151,1.9043 0.4064,0.61066 0.66005,1.16875 0.60925,1.24424 -0.1778,0.3556 -0.60925,0.12842 -1.19345,-0.55809 -0.3309,-0.38171 -0.60924,-0.635 -0.63535,-0.50835 -0.15169,0.63535 -0.81315,1.55046 -1.37125,1.95686 -0.30444,0.22718 -0.66004,0.58278 -0.7373,0.83784 -0.10054,0.25365 -0.22719,0.27975 -0.35525,0.12665 -0.3048,-0.3556 -0.27834,-0.73731 0.12806,-1.24425 0.45614,-0.5842 0.10054,-0.61066 -0.43286,-0.0511 -0.30445,0.33091 -0.38029,0.33091 -0.5842,0.10195 -0.20249,-0.3817 0.48225,-0.9906 1.39735,-1.24566 1.77765,-0.5334 1.93076,-0.88864 1.4732,-2.61549 -0.3556,-1.44815 -0.7112,-1.8796 -1.6263,-2.25989 -0.9398,-0.35702 -3.27554,-0.33091 -3.63079,0.0247 -0.33091,0.40675 -1.01706,1.54905 -1.01706,1.67569 0,0.0773 0.17745,0.15311 0.55951,0.25506 0.2794,0.0758 0.8128,0.30445 1.04175,0.5842 0.53305,0.5334 0.83785,1.6757 0.48225,2.0066 -0.10196,0.17745 -0.1778,0.17745 -0.25506,0 -0.0494,-0.1778 -0.30445,-0.5087 -0.48225,-0.78846 -0.5842,-0.76059 -1.2954,-0.83784 -3.937,-0.50694 -3.937,0.50694 -4.77485,0.9137 -5.0038,2.13325 -0.0508,0.3817 -0.1778,0.86395 -0.25364,1.01529 -0.10196,0.33091 -0.0755,0.3556 -0.55916,-1.26894 -0.127,-0.889 -0.127,-0.99095 0.0261,-1.39735 0.43109,-0.63535 1.24425,-0.9398 2.76825,-1.0668 1.6263,-0.12665 3.02224,-0.53305 3.91089,-0.9906 0.7112,-0.45755 1.80411,-1.8288 1.80411,-2.38831 0,-0.35524 -0.78705,-0.9398 -1.72685,-1.01564 -0.9398,-0.17745 -0.96591,-0.7867 -0.20391,-1.65065 0.9398,-0.99095 0.5842,-1.14265 -2.08209,-1.0668 -1.4732,0 -2.38831,-0.0261 -2.61691,-0.2286 -0.4826,-0.22895 -1.2954,-1.09291 -1.2954,-1.3201 0,-0.43285 1.06645,-0.6865 2.5908,-0.6865 h 1.57515 l -0.4826,-0.55951 c -0.48225,-0.45614 -0.50835,-0.53304 -0.43109,-1.29504 0.0247,-0.40676 0.12664,-0.8629 0.25329,-0.98955 0.33091,-0.35701 1.0668,-0.1778 2.5908,0.6089 0.9645,0.5334 1.2446,0.63535 1.37125,0.40675 0.0508,-0.10195 0.66146,-1.2707 1.3215,-2.46415 l 1.19345,-2.286 1.49931,-0.762 c 0.83784,-0.3803 1.92934,-0.889 2.46239,-1.14265 0.71261,-0.2794 1.04175,-0.508353 1.1176,-0.788106 0.0261,-0.202494 0.0773,-0.608894 0.1531,-0.888647 0.1778,-0.508706 0.25365,-0.558095 1.1684,-0.558095 0.4826,0 0.99095,0.126648 1.0668,0.227189 0.10195,0.128059 0.38171,0.128059 0.9398,-0.07585 0.83785,-0.3556 1.01565,-0.3556 1.3462,0 m -6.83225,0.508706 c 0,0.837847 -0.43285,1.497894 -0.9151,1.422047 -0.1778,-0.101953 -0.88865,0.101953 -1.65065,0.355596 l -1.34655,0.55951 -1.3462,-0.73731 -1.37125,-0.735891 0.27975,-0.508705 c 0.43145,-0.762 0.7112,-0.736953 2.1082,0.05115 l 1.16735,0.635352 1.3215,-0.863952 c 0.7359,-0.431448 1.44851,-0.837848 1.54905,-0.837848 0.10195,0 0.2039,0.329142 0.2039,0.660048 m -14.98635,0.660047 c 1.34655,0.786694 2.08245,1.499309 2.64195,2.488489 1.3709,2.51496 0.0759,4.57236 -3.63255,5.91891 -0.63535,0.2286 -1.24425,0.5842 -1.4732,0.762 -0.33055,0.33055 -0.27975,0.81315 0.33091,4.6482 0.25329,1.47285 0.50694,3.42829 0.63359,4.3434 0.25505,2.48885 0.5087,3.81035 1.57515,6.14609 0.6865,1.7018 1.0929,2.33716 2.0574,3.48086 1.21955,1.3201 1.2954,1.4471 2.1844,1.6249 1.1176,0.2547 1.3723,0.5595 0.48366,0.762 l -0.5842,0.12664 0.78669,1.06821 c 0.40605,0.6089 0.81315,1.1176 0.889,1.1423 0.0261,0.0508 0.10195,0 0.17745,-0.15311 0.3556,-0.32914 1.2446,-0.20249 2.0066,0.38171 0.48225,0.3048 0.7881,0.60925 0.7881,0.73589 0,0.27976 -0.45755,0.22896 -0.9398,-0.10054 -0.6103,-0.33055 -1.21955,-0.33055 -1.21955,0 0,0.2025 0.127,0.66005 0.3556,1.01565 0.25365,0.68615 0.30445,0.7373 0.91511,0.66005 0.50694,-0.0759 0.66004,0.0261 1.24424,0.5595 0.7359,0.86254 1.16876,1.0915 2.0574,1.1423 0.40676,0.0512 0.78705,0.1778 0.9398,0.3556 0.127,0.12699 0.25365,1.06679 0.3295,2.71744 0.0512,2.43911 0.0512,2.56611 0.7373,4.2926 0.3803,0.96626 0.9645,2.28635 1.26895,2.87055 0.43285,0.91511 0.63535,1.04176 0.96625,0.99096 0.66005,-0.0512 1.77765,0.33055 2.2599,0.7881 0.3817,0.43145 0.48225,0.9137 0.0773,0.76059 -0.15311,-0.10054 -0.30586,0.0773 -0.43286,0.50871 -0.2286,0.762 -0.5842,0.68615 -0.73589,-0.10196 -0.12665,-0.7112 -0.43251,-0.86289 -0.71085,-0.3556 -0.0773,0.15276 -0.22895,0.25471 -0.38171,0.1778 -0.3556,-0.127 -2.51495,-3.37784 -2.97109,-4.34375 -0.63535,-1.42205 -0.9398,-3.50414 -0.9398,-5.84129 v -2.26025 l -0.48401,0.127 c -0.45614,0.0508 -0.98919,-0.127 -1.7773,-0.40675 -1.3977,-0.6089 -1.8041,-0.55951 -1.6263,0.27975 0.0511,0.3556 0.17921,1.34655 0.2286,2.3622 0.20426,1.82845 0.48401,2.41265 0.889,2.00625 0.1531,-0.12665 0.35701,-0.5334 0.3817,-0.99096 0.0247,-0.4064 0.15311,-0.762 0.25365,-0.762 0.20391,0 0.10195,2.31105 -0.12665,2.92171 -0.0512,0.12665 0.4064,1.09114 1.1684,2.4638 0.68616,1.24425 1.62596,3.07305 2.0574,4.1148 0.68616,1.59985 0.9398,2.0066 1.39736,2.25989 0.88864,0.48225 0.7112,1.16876 -0.1778,1.16876 -0.63536,0 -1.21956,-0.86396 -2.71745,-4.19065 -0.89077,-1.8288 -1.85491,-3.78566 -2.08351,-4.4704 -0.3556,-0.5842 -0.76235,-1.2954 -0.96484,-1.57515 -0.66146,-0.81316 -0.73731,-1.24425 -0.73731,-3.048 -0.0247,-3.1489 -0.73589,-5.07965 -3.32634,-8.1788 -2.87055,-3.42865 -3.30376,-4.064 -4.31906,-6.24805 -1.01529,-2.3883 -1.59985,-4.4457 -1.85314,-6.98535 -0.27975,-1.80375 -0.83926,-5.25709 -1.42381,-8.53405 -0.278343,-1.16875 -0.431095,-2.49026 -0.48225,-2.9725 -0.101952,-0.889 -0.101952,-0.889 0.5334,-1.2954 1.37266,-0.81316 2.8194,-0.2025 2.8194,1.1437 v 0.60925 l 0.78846,-0.55809 c 1.95509,-1.21956 2.51354,-2.59222 1.44674,-3.937 -0.20249,-0.3556 -0.5842,-0.66146 -0.7112,-0.66146 -0.1023,0.0261 -2.41265,-0.9137 -2.6924,-1.0668 -0.0512,-0.07585 0.35525,-1.370896 0.50835,-1.497896 0.10196,-0.0508 0.68616,0.202494 1.3462,0.609247 m 7.0104,12.446219 c -0.0511,0.1517 -0.27976,0.25365 -0.43145,0.27976 -1.55046,0.20249 -6.27415,1.2954 -6.47665,1.52258 -0.43286,0.40676 -0.48401,0.30622 -0.45755,-0.71084 l 0.0247,-0.889 0.43286,0.30444 c 0.40499,0.38206 0.45579,0.38206 1.49789,0 0.55951,-0.17744 1.67711,-0.35524 2.36185,-0.43109 0.68615,-0.0512 1.62595,-0.1778 2.13466,-0.25365 0.78669,-0.0773 0.98883,-0.0508 0.91369,0.1778 m 14.4018,0.68474 c 0.15275,0.33091 0.27975,0.38171 0.45755,0.25506 0.15134,-0.0508 0.5581,-0.25506 0.8128,-0.30444 0.4826,-0.10196 0.5334,-0.0773 0.5334,0.32914 0,0.7112 0.5073,1.2707 1.01565,1.2707 0.68615,0 0.83785,-0.2039 -1.09291,2.2352 -0.60889,0.81316 -1.29504,1.75296 -1.54869,2.2091 -0.63535,1.06786 -1.72685,3.5814 -2.0574,4.77625 -0.43145,1.65065 -1.95545,3.50415 -2.8194,3.50415 -0.68651,0 -2.08245,-2.18405 -2.08245,-3.30165 0,-0.5842 0.45614,-0.86395 1.19345,-0.86395 0.30445,0 0.5842,-0.20285 0.91511,-0.7359 0.30444,-0.3817 0.5334,-0.66004 0.60889,-0.58455 0.20285,0.22895 -0.50835,1.4224 -1.09255,1.85349 -0.7112,0.5334 -0.762,0.91511 -0.3048,1.85491 0.76235,1.39735 1.6002,1.14229 0.99095,-0.25365 -0.27975,-0.6103 -0.33091,-0.86395 -0.20249,-1.04175 0.25364,-0.27975 0.5334,-0.0261 0.88864,0.8643 l 0.25365,0.71085 0.3556,-0.50835 c 0.2286,-0.3048 0.43145,-1.09291 0.63535,-1.77765 0.1778,-0.7112 0.45756,-1.651 0.71085,-2.2352 0.48225,-1.0929 2.1844,-3.98815 2.84445,-4.92795 l 0.5595,-0.68615 -0.5595,0.12806 c -0.5842,0.12664 -0.66005,0 -0.27834,-0.55951 0.27834,-0.45755 0.3556,-1.21955 0.10054,-1.21955 -0.0759,0 -0.3295,0.25506 -0.48225,0.5595 -0.20285,0.3295 -0.5334,0.66005 -0.66005,0.7867 -0.3556,0.1778 -0.3817,0.1531 -0.27975,-0.3803 0.12665,-0.71084 -0.1778,-0.7881 -0.38029,-0.15275 -0.1778,0.4064 -0.30622,0.43109 -0.66182,0.38171 -0.35524,-0.10196 -0.53304,-0.0265 -0.5842,0.15134 -0.0494,0.1531 -0.12664,0.63535 -0.25329,1.16875 -0.127,0.45755 -0.3048,0.88865 -0.38065,0.88865 -0.0769,0 -0.0769,-0.5842 -0.0769,-1.3201 0,-1.04175 0.0261,-1.3723 0.4064,-2.03235 0.43286,-0.83785 0.7112,-1.0668 0.7112,-0.5334 0,0.15275 0.0261,0.25365 0.12806,0.25365 0.1778,0 1.19345,-0.78705 1.19345,-0.94016 0,-0.30444 0.30444,-0.20249 0.48224,0.1778 m -16.15475,0.81316 c 0,0.0773 -0.38029,0.27975 -0.762,0.43286 -0.43144,0.12664 -1.2446,0.71084 -1.90464,1.24424 -1.2954,1.01565 -2.1082,1.2693 -2.1082,0.60925 0,-0.22895 0.35524,-0.55809 1.44815,-1.04211 1.8796,-0.96449 3.32669,-1.47284 3.32669,-1.24424 m 9.55111,4.6482 c 0,0.2286 -1.14371,2.1082 -1.55011,2.56575 l -0.43144,0.40675 v -0.61066 c 0,-0.71084 0.60889,-1.77764 1.32009,-2.20909 0.48366,-0.27975 0.66146,-0.35525 0.66146,-0.15275"
       style="fill:#ffffff;fill-opacity:1;fill-rule:nonzero;stroke:none;stroke-width:0.352777"
       id="path1620" />
    <g
       id="g1628"
       transform="matrix(0.62150014,0,0,0.62150014,15.047589,-54.105147)">
      <circle
         style="fill:none;stroke:#ffffff;stroke-width:0.6;stroke-miterlimit:4;stroke-dasharray:none;stop-color:#000000"
         id="circle1622"
         cx="17.361992"
         cy="185.10471"
         r="2.6150849" />
      <path
         style="fill:#ffffff;stroke:#ffffff;stroke-width:0.6;stroke-linecap:butt;stroke-linejoin:miter;stroke-miterlimit:4;stroke-dasharray:none;stroke-opacity:1"
         d="m 17.361991,189.51709 c 0,-8.86401 0,-8.82477 0,-8.82477"
         id="path1624" />
      <path
         style="fill:#ffffff;stroke:#ffffff;stroke-width:0.6;stroke-linecap:butt;stroke-linejoin:miter;stroke-miterlimit:4;stroke-dasharray:none;stroke-opacity:1"
         d="m 21.774378,185.1047 c -8.86401,0 -8.82477,0 -8.82477,0"
         id="path1626" />
    </g>
    <g
       id="g1636"
       transform="matrix(0.62150014,0,0,0.62150014,55.538925,-54.506051)">
      <circle
         style="fill:none;stroke:#ffffff;stroke-width:0.6;stroke-miterlimit:4;stroke-dasharray:none;stop-color:#000000"
         id="circle1630"
         cx="17.361992"
         cy="185.10471"
         r="2.6150849" />
      <path
         style="fill:#ffffff;stroke:#ffffff;stroke-width:0.6;stroke-linecap:butt;stroke-linejoin:miter;stroke-miterlimit:4;stroke-dasharray:none;stroke-opacity:1"
         d="m 17.361991,189.51709 c 0,-8.86401 0,-8.82477 0,-8.82477"
         id="path1632" />
      <path
         style="fill:#ffffff;stroke:#ffffff;stroke-width:0.6;stroke-linecap:butt;stroke-linejoin:miter;stroke-miterlimit:4;stroke-dasharray:none;stroke-opacity:1"
         d="m 21.774378,185.1047 c -8.86401,0 -8.82477,0 -8.82477,0"
         id="path1634" />
    </g>
    <g
       id="g1644"
       transform="matrix(0.62150014,0,0,0.62150014,55.141835,56.936568)">
      <circle
         style="fill:none;stroke:#ffffff;stroke-width:0.6;stroke-miterlimit:4;stroke-dasharray:none;stop-color:#000000"
         id="circle1638"
         cx="17.361992"
         cy="185.10471"
         r="2.6150849" />
      <path
         style="fill:#ffffff;stroke:#ffffff;stroke-width:0.6;stroke-linecap:butt;stroke-linejoin:miter;stroke-miterlimit:4;stroke-dasharray:none;stroke-opacity:1"
         d="m 17.361991,189.51709 c 0,-8.86401 0,-8.82477 0,-8.82477"
         id="path1640" />
      <path
         style="fill:#ffffff;stroke:#ffffff;stroke-width:0.6;stroke-linecap:butt;stroke-linejoin:miter;stroke-miterlimit:4;stroke-dasharray:none;stroke-opacity:1"
         d="m 21.774378,185.1047 c -8.86401,0 -8.82477,0 -8.82477,0"
         id="path1642" />
    </g>
    <g
       id="g1652"
       transform="matrix(0.62150014,0,0,0.62150014,15.07636,55.802639)">
      <circle
         style="fill:none;stroke:#ffffff;stroke-width:0.6;stroke-miterlimit:4;stroke-dasharray:none;stop-color:#000000"
         id="circle1646"
         cx="17.361992"
         cy="185.10471"
         r="2.6150849" />
      <path
         style="fill:#ffffff;stroke:#ffffff;stroke-width:0.6;stroke-linecap:butt;stroke-linejoin:miter;stroke-miterlimit:4;stroke-dasharray:none;stroke-opacity:1"
         d="m 17.361991,189.51709 c 0,-8.86401 0,-8.82477 0,-8.82477"
         id="path1648" />
      <path
         style="fill:#ffffff;stroke:#ffffff;stroke-width:0.6;stroke-linecap:butt;stroke-linejoin:miter;stroke-miterlimit:4;stroke-dasharray:none;stroke-opacity:1"
         d="m 21.774378,185.1047 c -8.86401,0 -8.82477,0 -8.82477,0"
         id="path1650" />
    </g>
    <text
       xml:space="preserve"
       style="font-size:2.85502px;line-height:1.25;font-family:'8BIT WONDER';-inkscape-font-specification:'8BIT WONDER';fill:#ffffff;stroke-width:0.178438"
       x="127.73656"
       y="-35.973171"
       id="text1656"
       transform="matrix(0.50243285,0.91643137,0.7336206,-0.65220072,0,0)"><tspan
         sodipodi:role="line"
         id="tspan1654"
         x="127.73656"
         y="-35.973171"
         style="font-style:normal;font-variant:normal;font-weight:normal;font-stretch:normal;font-family:'Nikkyou Sans';-inkscape-font-specification:'Nikkyou Sans';fill:#ffffff;stroke-width:0.178438">SQUARESOLID</tspan></text>
    <text
       xml:space="preserve"
       style="font-size:2.74887px;line-height:1.25;font-family:'8BIT WONDER';-inkscape-font-specification:'8BIT WONDER';fill:#ffffff;stroke-width:0.171804"
       id="text1662"
       x="-0.50167686"
       y="0.4657315"
       transform="matrix(-1,0,0,1,222.4783,-3.7316757)"><textPath
         xlink:href="#path1603"
         id="textPath1660"><tspan
           id="tspan1658"
           style="font-style:normal;font-variant:normal;font-weight:normal;font-stretch:normal;font-family:'Nikkyou Sans';-inkscape-font-specification:'Nikkyou Sans';fill:#ffffff;stroke-width:0.171804">Panthera Tigris Sondaica</tspan></textPath></text>
  </g>
</svg>
